<?xml version="1.0" encoding="utf-8" ?>	<!-- Generator: Assembly 1.8 - http://assemblyapp.co -->	<svg version="1.1" xmlns="http://www.w3.org/2000/svg" xmlns:xlink="http://www.w3.org/1999/xlink" width="1365.33" height="2048.00" viewBox="0 0 1365.3333740234375 2048.0">		<rect x="0" y="0" width="1365.33" height="2048.00" fill="#ffffff" />		<g id="document" transform="matrix(1,0,0,1,682.6666870117188,1024.0)">			<path d="M181.509,-676.249 C181.509,-750.351 121.377,-811.09 46.6678,-811.09 C-16.501,-811.09 -69.9514,-767.358 -84.5288,-707.226 C-98.4988,-766.75 -151.949,-811.09 -215.725,-811.09 C-289.827,-811.09 -350.566,-750.958 -350.566,-676.249 C-350.566,-639.198 -340.241,-611.865 -315.945,-587.57 C-313.515,-585.14 -306.834,-578.459 -303.19,-574.815 L-83.9215,-373.161 L135.347,-575.422 C138.384,-577.851 138.991,-579.066 141.421,-580.888 L142.028,-581.496 C165.716,-605.791 181.509,-639.198 181.509,-676.249 Z " fill="#be2612" fill-opacity="1.00" />			<path d="M20.9715,-292.201 C-55.9091,-292.201 -118.233,-245.099 -118.233,-186.996 C-118.233,-128.893 -55.9091,-81.7906 20.9715,-81.7906 C97.8521,-81.7905 160.176,-128.893 160.176,-186.996 C160.176,-245.099 97.8521,-292.201 20.9715,-292.201 Z " fill="#ebd1a7" fill-opacity="1.00" />			<path d="M-257.438,-292.201 C-334.318,-292.201 -396.643,-245.099 -396.643,-186.996 C-396.643,-128.893 -334.318,-81.7906 -257.438,-81.7906 C-180.557,-81.7906 -118.233,-128.893 -118.233,-186.996 C-118.233,-245.099 -180.557,-292.201 -257.438,-292.201 Z " fill="#ebd1a7" fill-opacity="1.00" />			<path d="M172.846,52.6746 C139.024,-41.8418 75.2382,-105.448 30.3756,-89.395 C-14.487,-73.3415 -23.4376,16.2932 10.3839,110.81 C44.2054,205.326 107.991,268.933 152.854,252.879 C197.717,236.826 206.667,147.191 172.846,52.6746 Z " fill="#c4330f" fill-opacity="1.00" />			<path d="M115.88,90.8633 L115.88,16.2919 C115.88,-24.9187 82.5195,-58.2796 41.309,-58.2796 C0.0984541,-58.2796 -33.2625,-24.9187 -33.2625,16.2918 C-33.2625,57.5024 0.0984411,90.8633 41.309,90.8633 L115.88,90.8633 Z " fill="#c4330f" fill-opacity="1.00" />			<path d="M-67.9165,-209.401 C-67.204,-192.49 -57.4098,-150.878 -24.4736,-152.918 C4.8842,-155.478 22.6804,-140.473 38.9699,-45.4263 C56.8085,58.249 154.405,60.4765 210.436,36.0893 C147.526,26.4728 120.002,-44.8719 148.742,-106.956 C181.29,-180.179 183.978,-301.093 65.5747,-313.525 C-59.1008,-326.381 -68.8695,-225.494 -67.9165,-209.401 Z " fill="#7b4c00" fill-opacity="1.00" />			<path d="M-152.866,-285.137 C-125.304,-285.137 -102.474,-307.967 -102.474,-335.808 L-279.264,-335.808 C-334.946,-335.808 -380.605,-289.87 -380.605,-234.467 L-152.866,-234.467 C-125.025,-234.467 -102.196,-257.296 -102.196,-285.137 L-152.866,-285.137 Z " fill="#4e3307" fill-opacity="1.00" />			<path d="M-184.327,-85.0113 L-337.785,-85.0113 L-358.806,332.47 L-158.167,332.47 L-184.327,-85.0113 Z " fill="#191360" fill-opacity="1.00" />			<path d="M-171.12,-186.558 C-171.12,-180.97 -166.591,-176.44 -161.003,-176.44 C-155.415,-176.44 -150.885,-180.97 -150.885,-186.558 C-150.885,-192.146 -155.415,-196.676 -161.003,-196.676 C-166.591,-196.676 -171.12,-192.146 -171.12,-186.558 Z " fill="#000004" fill-opacity="1.00" />			<path d="M-77.3745,-194.15 C-81.3257,-198.102 -87.732,-198.102 -91.6833,-194.15 C-95.6345,-190.199 -95.6345,-183.793 -91.6833,-179.842 C-87.732,-175.89 -81.3257,-175.89 -77.3745,-179.842 C-73.4232,-183.793 -73.4232,-190.199 -77.3745,-194.15 Z " fill="#000004" fill-opacity="1.00" />			<path d="M-325.053,822.275 L-238.645,822.275 L-187.128,335.085 L-325.053,335.085 L-325.053,822.275 Z " fill="#414141" fill-opacity="1.00" />			<path d="M-8.7623,-149.045 C-5.96834,-144.206 0.21963,-142.548 5.05892,-145.342 C9.8982,-148.136 11.5563,-154.324 8.7623,-159.163 C5.96834,-164.002 -0.21963,-165.66 -5.05892,-162.866 C-9.8982,-160.072 -11.5563,-153.884 -8.7623,-149.045 Z " fill="#be2612" fill-opacity="1.00" />			<path d="M165.99,390.878 L136.745,390.878 L136.745,809.383 L149.85,809.383 L165.99,390.878 Z " fill="#ebd1a6" fill-opacity="1.00" />			<path d="M49.4907,63.0503 L42.9293,34.5509 L-210.783,92.743 L-210.783,107.188 L49.4907,63.0503 Z " fill="#ebd1a6" fill-opacity="1.00" />			<path d="M-219.526,-2.20268e-13 L-228.112,29.1963 L15.0686,140.792 L25.4861,124.131 L-219.526,-2.20268e-13 Z " fill="#ebd1a6" fill-opacity="1.00" />			<path d="M151.367,437.097 L136.745,462.424 L499.181,671.677 L505.734,660.327 L151.367,437.097 Z " fill="#ebd1a6" fill-opacity="1.00" />			<path d="M299.153,294.255 L286.43,270.783 C266.861,204.429 197.304,166.555 130.95,186.124 C64.5964,205.693 26.7226,275.249 46.2914,341.603 C46.2914,341.603 89.52,450.316 50.2395,491.087 C-8.81662,552.384 274.329,388.275 372.614,388.275 C417.263,388.275 299.153,294.255 299.153,294.255 Z " fill="#c4330f" fill-opacity="1.00" />			<path d="M487.222,643.602 L487.292,737.16 L527.786,667.022 L487.222,643.602 Z " fill="#3a8686" fill-opacity="1.00" />			<path d="M152.61,762.544 L71.6209,809.383 L152.61,809.383 L152.61,762.544 Z " fill="#3a8686" fill-opacity="1.00" />			<path d="M-296.939,741.606 L-159.014,821.374 L-296.939,821.374 L-296.939,741.606 Z " fill="#414141" fill-opacity="1.00" />		</g>	</svg>