<?xml version="1.0" standalone="no"?>
<!DOCTYPE svg PUBLIC "-//W3C//DTD SVG 20010904//EN"
 "http://www.w3.org/TR/2001/REC-SVG-20010904/DTD/svg10.dtd">
<svg version="1.0" xmlns="http://www.w3.org/2000/svg"
 width="300.000000pt" height="300.000000pt" viewBox="0 0 300.000000 300.000000"
 preserveAspectRatio="xMidYMid meet">
<metadata>
Created by potrace 1.11, written by Peter Selinger 2001-2013
</metadata>
<g transform="translate(0.000000,300.000000) scale(0.100000,-0.100000)"
fill="#000000" stroke="none">
<path d="M1660 2695 c0 -3 16 -37 36 -76 l35 -71 50 70 c27 39 49 73 49 76 0
3 -38 6 -85 6 -47 0 -85 -2 -85 -5z"/>
<path d="M1920 2695 c0 -3 22 -37 49 -75 48 -69 49 -70 63 -47 23 35 58 105
58 117 0 6 -33 10 -85 10 -47 0 -85 -2 -85 -5z"/>
<path d="M1515 2560 l-78 -79 121 -3 c67 -2 122 -3 122 -3 0 0 -19 37 -43 82
l-43 83 -79 -80z"/>
<path d="M2117 2565 c-20 -42 -37 -77 -37 -80 0 -2 54 -5 120 -7 l120 -3 -82
83 c-46 45 -83 82 -83 82 0 0 -17 -34 -38 -75z"/>
<path d="M1826 2546 c-25 -36 -46 -66 -46 -68 0 -2 43 -3 95 -3 72 0 94 3 90
13 -5 13 -85 122 -90 122 -2 0 -24 -29 -49 -64z"/>
<path d="M1500 2394 c0 -3 57 -71 126 -150 69 -80 123 -148 120 -151 -3 -4
-39 -15 -79 -25 -85 -22 -201 -75 -266 -122 -37 -27 -51 -32 -69 -25 -13 5
-64 14 -114 20 -279 34 -571 -89 -740 -312 -228 -301 -233 -685 -12 -995 77
-108 231 -229 352 -274 264 -101 543 -70 772 85 54 36 56 37 103 26 547 -126
1062 334 999 893 -37 337 -280 620 -606 705 -44 12 -81 23 -83 25 -2 2 53 69
122 148 69 80 125 148 125 152 0 3 -46 6 -103 6 l-102 0 -23 -82 c-12 -46 -32
-116 -44 -156 l-21 -72 -36 6 c-20 4 -37 7 -38 8 -1 1 16 63 38 139 21 76 39
142 39 147 0 6 -38 10 -85 10 -47 0 -85 -2 -85 -5 0 -3 18 -68 40 -146 22 -78
39 -143 38 -145 -2 -1 -19 -5 -39 -9 l-35 -6 -44 155 -43 156 -104 0 c-57 0
-103 -3 -103 -6z m523 -460 c138 -32 255 -100 354 -208 110 -120 162 -248 170
-421 6 -135 -10 -214 -69 -335 -59 -120 -179 -241 -299 -299 -46 -22 -113 -47
-149 -55 -62 -15 -260 -22 -260 -10 0 3 11 20 24 37 74 99 129 239 147 375 42
313 -107 631 -374 800 l-47 30 25 16 c113 74 323 105 478 70z m-793 -141 c0
-3 -15 -28 -33 -56 -54 -84 -62 -99 -85 -157 -43 -111 -56 -180 -55 -305 0
-186 35 -302 139 -461 60 -91 145 -175 228 -226 31 -18 56 -36 56 -39 0 -13
-142 -71 -212 -85 -106 -23 -260 -14 -356 19 -202 70 -363 232 -429 431 -23
71 -27 97 -27 211 0 117 3 138 28 210 81 233 263 397 501 450 55 13 245 19
245 8z m261 -101 c145 -95 255 -250 293 -412 20 -83 20 -227 0 -310 -20 -86
-83 -213 -134 -273 l-42 -47 -60 32 c-32 17 -90 60 -128 95 -218 202 -280 518
-154 783 44 93 108 180 133 180 10 0 52 -22 92 -48z"/>
</g>
</svg>
