<?xml version="1.0" encoding="utf-8" ?>	<!-- Generator: Assembly 1.8 - http://assemblyapp.co -->	<svg version="1.1" xmlns="http://www.w3.org/2000/svg" xmlns:xlink="http://www.w3.org/1999/xlink" width="2048.00" height="1152.00" viewBox="0 0 2048.0 1151.9999914169312">		<g id="document" transform="matrix(1,0,0,1,1024.0,575.9999957084656)">			<g>				<path d="M321.322,65.7897 C416.729,64.796 493.563,15.259 492.937,-44.8645 C492.311,-104.988 414.449,-152.901 319.055,-151.907 C223.66,-150.914 146.813,-101.377 147.44,-41.2531 C148.066,18.8704 225.915,66.7963 321.322,65.8025 L321.322,65.7897 Z " fill="#f8f7f4" fill-opacity="1.00" />				<path d="M586.772,-23.594 C689.061,-24.6594 771.39,-82.2396 770.662,-152.195 C769.933,-222.15 686.422,-278.003 584.133,-276.938 C481.844,-275.872 399.514,-218.292 400.243,-148.337 C400.971,-78.3815 484.491,-22.5287 586.772,-23.594 Z " fill="#f8f7f4" fill-opacity="1.00" />				<path d="M544.358,143.108 C613.92,142.384 669.75,87.88 669.057,21.3615 C668.365,-45.1569 611.411,-98.4947 541.849,-97.7702 C472.287,-97.0457 416.457,-42.5288 417.15,23.9853 C417.843,90.4995 474.796,143.833 544.358,143.108 Z " fill="#f8f7f4" fill-opacity="1.00" />				<path d="M753.789,79.04 C840.882,78.1328 911.022,33.1801 910.454,-21.3478 C909.886,-75.8757 838.825,-119.358 751.732,-118.451 C664.64,-117.544 594.499,-72.5908 595.067,-18.0629 C595.635,36.4651 666.697,79.9471 753.789,79.04 Z " fill="#f8f7f4" fill-opacity="1.00" />				<path d="M364.929,-4.81115 C434.491,-5.53569 490.321,-60.0397 489.628,-126.558 C488.935,-193.077 431.982,-246.414 362.42,-245.69 C292.858,-244.965 237.028,-190.448 237.72,-123.934 C238.413,-57.4202 295.367,-4.08662 364.929,-4.81115 Z " fill="#f8f7f4" fill-opacity="1.00" />				<path d="M740.352,-29.379 C809.914,-30.1035 865.744,-84.6075 865.051,-151.126 C864.358,-217.644 807.405,-270.982 737.843,-270.258 C668.281,-269.533 612.451,-215.016 613.144,-148.502 C613.836,-81.988 670.79,-28.6545 740.352,-29.379 Z " fill="#f8f7f4" fill-opacity="1.00" />				<path d="M-1067.31,53.7327 C-971.9,52.739 -895.066,3.20197 -895.692,-56.9215 C-896.318,-117.045 -974.168,-164.971 -1069.57,-163.977 C-1164.98,-162.983 -1241.82,-113.442 -1241.19,-53.3229 C-1240.56,6.79629 -1162.71,54.7264 -1067.31,53.7327 Z " fill="#f8f7f4" fill-opacity="1.00" />				<path d="M-801.845,-35.6511 C-699.556,-36.7165 -617.226,-94.2967 -617.955,-164.252 C-618.684,-234.207 -702.203,-290.06 -804.484,-288.995 C-906.764,-287.929 -989.089,-230.349 -988.361,-160.394 C-987.632,-90.4387 -904.113,-34.5859 -801.832,-35.6513 L-801.845,-35.6511 Z " fill="#f8f7f4" fill-opacity="1.00" />				<path d="M-844.245,131.051 C-774.683,130.327 -718.853,75.8226 -719.546,9.3042 C-720.239,-57.2142 -777.201,-110.556 -846.754,-109.832 C-916.308,-109.107 -972.146,-54.5904 -971.453,11.9237 C-970.761,78.4379 -913.807,131.771 -844.245,131.047 Z " fill="#f8f7f4" fill-opacity="1.00" />				<path d="M-634.823,66.9828 C-547.73,66.0757 -477.59,21.1229 -478.158,-33.405 C-478.726,-87.9329 -549.787,-131.415 -636.88,-130.508 C-723.973,-129.601 -794.113,-84.6479 -793.545,-30.12 C-792.977,24.4079 -721.916,67.8899 -634.823,66.9828 Z " fill="#f8f7f4" fill-opacity="1.00" />				<path d="M-1023.68,-16.8769 C-954.122,-17.6014 -898.292,-72.1054 -898.984,-138.624 C-899.677,-205.142 -956.631,-258.48 -1026.19,-257.756 C-1095.75,-257.031 -1151.58,-202.514 -1150.89,-136 C-1150.2,-69.486 -1093.25,-16.1524 -1023.68,-16.8769 Z " fill="#f8f7f4" fill-opacity="1.00" />				<path d="M-648.261,-41.4447 C-578.699,-42.1693 -522.868,-96.6732 -523.561,-163.192 C-524.254,-229.71 -581.207,-283.048 -650.77,-282.323 C-720.332,-281.599 -776.153,-227.082 -775.46,-160.568 C-774.767,-94.0539 -717.823,-40.7202 -648.261,-41.4447 Z " fill="#f8f7f4" fill-opacity="1.00" />				<path d="M402.309,56.7834 C402.309,56.7834 332.216,41.248 251.843,76.8892 C258.119,145.038 255.494,158.994 369.715,166.154 C483.936,173.313 895.853,22.8469 965.149,-7.11259 C1013.47,-46.5967 1003.25,-75.7237 979.663,-83.8317 C956.078,-91.9397 904.454,-87.2252 889.094,-91.242 C873.734,-95.2589 838.833,-104.638 804.105,-97.3168 C769.377,-89.9951 213.267,117.08 213.267,117.08 L402.309,56.7834 Z " fill="#e6e5d2" fill-opacity="1.00" />				<path d="M743.424,-34.0025 L743.337,-42.4279 L743.424,-34.0025 Z " fill="#adada1" fill-opacity="1.00" />				<path d="M713.616,-23.5556 L713.528,-31.981 L713.616,-23.5556 Z " fill="#adada1" fill-opacity="1.00" />				<path d="M685.215,-12.123 L685.128,-20.5484 L685.215,-12.123 Z " fill="#adada1" fill-opacity="1.00" />				<path d="M656.028,-0.678009 L655.94,-9.10342 L656.028,-0.678009 Z " fill="#adada1" fill-opacity="1.00" />				<path d="M626.219,9.76456 L626.132,1.33915 L626.219,9.76456 Z " fill="#adada1" fill-opacity="1.00" />				<path d="M597.809,20.1969 L597.721,11.7757 L597.809,20.1969 Z " fill="#adada1" fill-opacity="1.00" />				<path d="M566.572,28.5424 L566.484,20.117 L566.572,28.5424 Z " fill="#adada1" fill-opacity="1.00" />				<path d="M536.763,38.985 L536.675,30.5596 L536.763,38.985 Z " fill="#adada1" fill-opacity="1.00" />				<path d="M508.362,50.4219 L508.275,41.9965 L508.362,50.4219 Z " fill="#adada1" fill-opacity="1.00" />				<path d="M479.175,61.8626 L479.088,53.4415 L479.175,61.8626 Z " fill="#adada1" fill-opacity="1.00" />				<path d="M449.366,72.3053 L449.279,63.8841 L449.366,72.3053 Z " fill="#adada1" fill-opacity="1.00" />				<path d="M420.945,81.7373 L420.858,73.3161 L420.945,81.7373 Z " fill="#adada1" fill-opacity="1.00" />				<path d="M30.6261,-39.1429 C27.4912,-36.3827 30.8001,-22.4374 30.8001,-22.4374 L85.7829,177.46 L222.969,113.456 C222.969,113.456 75.3159,-27.0822 64.0353,-40.8846 C52.7548,-54.687 43.0853,-47.6263 43.0853,-47.6263 L30.6261,-39.1429 Z " fill="#adada1" fill-opacity="1.00" />				<path d="M577.683,86.0258 L-231.088,94.4497 C-231.088,94.4497 -289.969,105.618 -246.686,124.628 C-212.641,139.591 386.786,203.563 504.863,178.67 C622.94,153.777 629.421,107.765 577.683,86.0258 Z " fill="#c5c6b6" fill-opacity="1.00" />				<path d="M-252.886,119.567 C-249.791,149.58 401.99,192.264 463.132,181.884 C524.274,171.504 584.99,119.36 584.99,119.36 C584.99,119.36 33.5302,104.228 -104.311,102.877 C-242.151,101.525 -252.886,119.571 -252.886,119.571 Z " fill="#adada1" fill-opacity="1.00" />				<path d="M146.05,214.424 C146.05,214.424 194.475,184.507 155.501,186.396 C116.527,188.285 -90.9738,180.695 -90.9738,180.695 C-90.9738,180.695 -134.04,189.497 -90.7853,198.79 C-47.5309,208.082 101.74,237.159 123.891,225.792 L146.05,214.424 Z " fill="#adada1" fill-opacity="1.00" />				<path d="M613.409,173.363 C613.409,173.363 813.919,175.455 857.015,170.825 C900.112,166.195 862.456,159.628 862.456,159.628 L715.901,123.623 L613.409,173.363 Z " fill="#a2a298" fill-opacity="1.00" />				<path d="M94.7038,230.285 C90.8899,265.129 148.005,268.711 203.687,268.131 C259.369,267.551 473.208,213.808 553.712,190.7 C634.216,167.593 804.689,93.4216 873.952,60.6793 C943.215,27.937 956.905,4.22975 978.938,-19.667 C1000.97,-43.5637 1008.82,-68.1293 992.028,-76.3208 C975.236,-84.5124 939.812,-31.9096 901.14,-2.26908 C862.468,27.3715 515.713,150.696 382.436,186.901 C249.159,223.106 94.7037,230.272 94.7037,230.272 L94.7038,230.285 Z " fill="#a2a298" fill-opacity="1.00" />				<path d="M265.806,153.709 L233.28,167.575 C233.28,167.575 226.583,192.898 233.708,208.74 C268.668,203.964 278.057,189.673 278.057,189.673 L265.806,153.709 Z " fill="#adada1" fill-opacity="1.00" />				<path d="M233.7,208.736 C233.7,208.736 235.031,232.74 254.74,238.926 C274.449,245.112 300.834,238.446 300.834,238.446 L278.048,189.677 L233.7,208.736 Z " fill="#a2a298" fill-opacity="1.00" />				<path d="M441.788,138.953 L258.75,207.684 C258.75,207.684 268.79,235.423 284.127,238.047 C299.463,240.67 351.379,224.072 406.316,206.938 C447.689,194.019 463.132,181.888 463.132,181.888 L441.788,138.953 Z " fill="#adada1" fill-opacity="1.00" />				<path d="M414.636,97.4714 C414.636,97.4714 294.069,123.788 269.279,149.8 C244.489,175.812 253.107,200.783 258.767,207.684 C264.426,214.585 388.065,172.084 388.065,172.084 L441.818,138.952 L414.636,97.4714 Z " fill="#c5c6b6" fill-opacity="1.00" />				<path d="M363.13,107.751 L362.336,109.106 C361.815,109.966 361.11,111.303 360.196,112.976 C358.414,116.312 355.975,121.113 353.502,126.995 C355.654,128.431 357.599,129.629 359.246,130.552 C360.893,131.476 362.204,132.18 363.115,132.62 C364.026,133.059 364.524,133.298 364.524,133.298 C364.524,133.298 363.981,133.243 362.97,133.057 C361.959,132.871 360.473,132.57 358.624,132.025 C359.892,130.584 360.975,129.525 361.699,128.804 C362.422,128.082 362.85,127.732 362.85,127.732 L363.13,107.751 Z " fill="#a2a298" fill-opacity="1.00" />				<path d="M266.296,153.17 L265.764,154.231 C265.408,154.91 264.927,155.95 264.316,157.239 C263.108,159.817 261.458,163.519 259.79,167.974 C259.878,168.708 260.018,169.425 260.176,170.146 L260.284,170.688 L260.338,170.961 L260.365,171.093 L260.366,171.162 C260.419,171.358 260.299,170.936 260.321,170.991 L260.322,171.03 L260.667,172.193 C260.889,172.973 261.111,173.753 261.333,174.525 L261.653,175.684 L262.043,176.655 L263.126,178.448 C263.479,179.047 263.929,179.564 264.311,180.145 L265.487,181.792 L266.785,183.309 C267.218,183.805 267.604,184.335 268.045,184.792 C268.486,185.249 268.931,185.706 269.342,186.159 C270.172,187.104 271.104,187.872 271.933,188.697 C273.66,190.283 275.384,191.628 276.914,192.801 C277.689,193.396 278.451,193.879 279.132,194.398 C279.813,194.917 280.488,195.303 281.078,195.695 C281.668,196.086 282.227,196.388 282.691,196.695 L283.913,197.409 L284.949,197.984 C284.949,197.984 284.521,197.955 283.759,197.843 C283.06,197.641 282.272,197.431 281.427,197.166 C280.582,196.901 279.68,196.573 278.727,196.194 L277.004,194.929 C276.427,194.508 275.9,193.987 275.331,193.502 C274.761,193.016 274.204,192.509 273.639,191.989 L272.039,190.295 L270.561,188.344 L269.909,187.239 C269.708,186.852 269.528,186.435 269.336,186.031 L268.241,183.554 L267.707,182.307 L267.331,181.157 L266.602,178.847 L266.244,177.688 L266.168,177.407 L266.167,177.326 L266.131,177.164 L266.059,176.835 L265.916,176.187 C265.719,175.334 265.534,174.447 265.418,173.563 C266.395,172.488 267.25,171.718 267.813,171.187 C268.376,170.655 268.711,170.399 268.711,170.399 L266.296,153.17 Z " fill="#a2a298" fill-opacity="1.00" />				<path d="M578.924,205.157 L613.594,192.325 L613.368,170.597 L586.991,177.712 L578.924,205.157 Z " fill="#adada1" fill-opacity="1.00" />				<path d="M778.683,114.778 C778.683,114.778 763.115,112.058 727.045,123.515 C690.975,134.972 613.389,170.584 613.389,170.584 L613.615,192.312 L748.489,176.034 L774.865,168.919 L778.683,114.778 Z " fill="#c5c6b6" fill-opacity="1.00" />				<path d="M578.923,205.14 C578.923,205.14 588.968,234.106 601.513,235.057 L578.794,192.671 L578.923,205.14 Z " fill="#a2a298" fill-opacity="1.00" />				<path d="M613.594,192.304 L636.309,234.691 C636.309,234.691 716.892,219.615 748.843,212.446 C780.793,205.278 790.864,199.388 790.864,199.388 L774.756,160.503 L613.594,192.304 Z " fill="#adada1" fill-opacity="1.00" />				<path d="M809.55,159.486 C809.284,133.988 791.615,113.501 770.092,113.725 C748.569,113.95 731.331,134.8 731.597,160.298 C731.862,185.797 749.527,206.283 771.054,206.059 C792.581,205.835 809.815,184.98 809.55,159.486 Z " fill="#a2a298" fill-opacity="1.00" />				<path d="M733.95,121.498 C733.95,121.498 732.86,122.792 731.047,125.136 C730.131,126.296 729.064,127.722 727.842,129.385 C726.619,131.048 725.314,132.93 723.886,134.984 C722.458,137.038 721.028,139.353 719.566,141.805 L719.731,142.885 L719.962,144.122 C720.104,144.976 720.291,145.697 720.465,146.456 C721.774,148.96 723.23,151.228 724.568,153.33 C727.297,157.504 729.871,160.821 731.716,163.123 C733.561,165.425 734.724,166.678 734.724,166.678 C733.556,165.737 732.18,164.567 730.677,163.091 C730.471,162.238 730.231,161.338 730.103,160.532 L729.859,159.299 C729.764,158.757 729.717,158.364 729.648,157.89 C731.367,155.482 733.14,153.331 734.791,151.373 C736.442,149.414 738.088,147.73 739.53,146.24 C740.973,144.75 742.324,143.53 743.412,142.519 C745.623,140.525 746.98,139.489 746.98,139.489 L733.95,121.498 Z " fill="#a2a298" fill-opacity="1.00" />				<path d="M613.367,170.576 C613.513,171.857 613.755,173.338 614.024,174.93 C614.293,176.521 614.623,178.241 614.984,180.05 L616.12,185.737 C616.228,186.24 616.336,186.748 616.444,187.26 L616.805,188.658 C617.071,189.617 617.372,190.606 617.69,191.59 C618.339,193.563 619.112,195.547 619.937,197.522 C621.615,201.459 623.528,205.347 625.425,208.956 C627.323,212.566 629.204,215.907 630.829,218.771 C632.453,221.636 633.846,224.024 634.821,225.703 L636.354,228.346 C636.354,228.346 635.517,227.602 634.147,226.231 C633.477,225.533 632.652,224.678 631.74,223.691 C630.827,222.705 629.836,221.522 628.754,220.242 C628.375,219.173 628.081,218.09 627.784,216.999 C627.645,216.436 627.511,215.882 627.377,215.323 C627.243,214.765 627.174,214.295 627.075,213.787 C626.892,212.643 626.771,211.691 626.615,210.663 C626.459,209.634 626.406,208.664 626.336,207.703 C626.348,206.848 626.434,206.026 626.481,205.252 C626.529,204.477 626.658,203.732 626.775,203.038 L613.367,170.576 Z " fill="#a2a298" fill-opacity="1.00" />				<path d="M788.407,-18.4905 L787.973,-60.1046 L788.407,-18.4905 Z " fill="#c5c6b6" fill-opacity="1.00" />				<path d="M788.407,-18.4905 L787.973,-60.1046 L788.407,-18.4905 Z " fill="none" stroke-width="0.62" stroke="#a2a298" stroke-linecap="square" stroke-linejoin="miter" />				<path d="M807.13,-71.582 L839.296,-57.6636 L904.857,-89.585 L880.687,-93.9376 C875.188,-88.3141 820.914,-86.3551 820.914,-86.3551 L807.13,-71.582 Z " fill="#a2a298" fill-opacity="1.00" />				<path d="M-1396.75,608.992 L1180.99,582.143 L1179.83,471.001 L-1397.9,497.85 L-1396.75,608.992 Z " fill="#eae6dc" fill-opacity="1.00" />				<path d="M-790.417,172.502 C-790.417,172.502 -741.453,128.6 -721.304,95.8431 C-701.154,63.0865 -648.47,28.7897 -632.079,-17.185 C-632.079,-17.185 -815.224,-10.4551 -790.421,172.503 Z " fill="#d8aa7d" fill-opacity="1.00" />				<path d="M-641.86,48.1771 C-596.261,-35.1375 -536.208,-95.8118 -451.433,-124.693 C-366.658,-153.574 -346.265,-206.836 -356.062,-238.323 C-365.86,-269.811 -532.344,-178.448 -532.344,-178.448 C-532.344,-178.448 -559.422,-241.566 -590.384,-182.563 C-621.346,-123.56 -747.777,-22.4525 -779.683,160.228 L-641.86,48.1771 Z " fill="#d8aa7d" fill-opacity="1.00" />				<path d="M-588.615,16.8756 C-520.984,-49.7944 -444.631,-77.8823 -356.521,-93.9255 C-263.845,-110.799 -232.148,-142.337 -232.492,-175.317 C-232.835,-208.296 -418.554,-168.676 -418.554,-168.676 C-418.554,-168.676 -573.972,-159.995 -620.61,-112.384 C-667.247,-64.7731 -817.424,-4.31015 -900.486,161.486 L-588.615,16.8756 Z " fill="#d8a97d" fill-opacity="1.00" />				<path d="M108.327,342.597 C143.838,347.527 175.059,333.049 178.735,311.145 L214.714,51.9751 C217.821,29.5922 191.725,7.15772 155.591,2.14138 L-255.592,-54.941 C-291.103,-59.8709 -322.892,-45.8725 -326.054,-23.0969 L-361.979,235.681 C-365.086,258.063 -338.99,280.498 -302.856,285.514 L108.327,342.597 Z " fill="#d7a71b" fill-opacity="1.00" />				<path d="M-741.959,433.017 C-530.05,381.15 -414.181,361.419 -352.428,357.137 C-298.822,353.433 -267.768,328.39 -293.425,296.996 C-329.406,252.973 -416.88,258.625 -508.103,269.733 C-557.966,260.548 -600.921,245.117 -611.788,180.74 C-616.444,153.158 -607.586,96.9672 -568.567,67.3829 C-532.844,40.2954 -443.822,-13.8404 -416.057,-25.5485 C-388.292,-37.2566 -332.92,-51.159 -313.561,-50.7194 C-210.732,-48.3703 -130.771,-43.9703 -112.406,-91.2909 C-105.614,-117.273 -256.421,-118.982 -277.722,-128.182 C-277.722,-128.182 -383.953,-148.097 -480.291,-121.173 C-576.629,-94.2493 -633,-79.8235 -679.973,-65.2006 C-726.946,-50.5777 -779.273,-35.784 -913.004,109.851 C-1081.53,255.03 -1371.1,608.725 -1371.1,608.725 L-999.432,604.854 C-999.432,604.854 -891.486,469.614 -741.959,433.017 Z " fill="#e4bc89" fill-opacity="1.00" />				<path d="M-400.699,361.253 C-333.696,361.525 -325.182,360.111 -317.742,356.113 C-310.302,352.116 -307.485,349.235 -309.981,348.906 C-312.476,348.577 -313.907,347.878 -317.872,343.644 C-326.059,344.443 -367.341,348.435 -380.868,349.644 C-394.394,350.854 -400.769,354.486 -400.699,361.253 Z " fill="#e8cbaf" fill-opacity="1.00" />				<path d="M-127.733,-106.517 C-163.727,-113.335 -168.445,-113.422 -172.843,-112.014 C-177.24,-110.606 -179.042,-109.337 -177.733,-108.912 C-176.424,-108.487 -175.724,-107.969 -174.014,-105.298 C-169.533,-104.912 -146.943,-102.947 -139.55,-102.251 C-132.158,-101.554 -128.369,-102.872 -127.733,-106.517 Z " fill="#e8cbaf" fill-opacity="1.00" />			</g>			<g>				<g>					<path d="M51.2194,260.445 C51.0521,261.228 52.0473,261.716 52.5576,261.101 L148.82,144.862 C148.996,144.649 149.034,144.381 148.965,144.15 C148.894,143.916 148.713,143.714 148.449,143.634 L3.90732,100.215 C3.14237,99.9857 2.58405,100.943 3.15713,101.502 L70.9956,167.335 C71.0913,167.426 71.1581,167.542 71.1958,167.666 C71.2324,167.787 71.2398,167.917 71.2118,168.05 L51.2194,260.445 Z " fill="#e82934" fill-opacity="1.00" />					<path d="M27.574,276.896 C27.8112,277.68 28.9384,277.599 29.0627,276.794 L44.4976,176.084 C44.5144,175.967 44.5078,175.853 44.4757,175.746 C44.4424,175.636 44.3836,175.534 44.3058,175.45 L-24.3458,100.17 C-24.8959,99.5681 -25.8789,100.125 -25.6416,100.91 L27.574,276.896 Z " fill="#e82934" fill-opacity="1.00" />				</g>				<g>					<path d="M51.2194,260.445 C51.0521,261.228 52.0473,261.716 52.5576,261.101 L148.82,144.862 C148.996,144.649 149.034,144.381 148.965,144.15 L148.449,143.634 L71.1958,167.666 C71.2324,167.787 71.2398,167.917 71.2118,168.05 L51.2194,260.445 Z " fill="#c7232c" fill-opacity="1.00" />					<path d="M27.574,276.896 C27.8112,277.68 28.9384,277.599 29.0627,276.794 L44.4976,176.084 C44.5144,175.967 44.5078,175.853 44.4757,175.746 L0.966202,188.903 L27.574,276.896 Z " fill="#c7232c" fill-opacity="1.00" />				</g>			</g>			<path d="M-322.252,136.27 C-323.023,141.299 -321.976,145.514 -319.109,148.918 C-316.245,152.342 -311.913,154.462 -306.114,155.277 C-301.14,155.976 -296.619,155.479 -292.55,153.785 C-288.481,152.091 -286.083,148.662 -285.357,143.497 C-284.774,139.349 -285.81,135.977 -288.467,133.38 C-290.006,131.89 -292.301,130.564 -295.354,129.401 L-301.684,126.989 C-305.943,125.355 -308.65,124.111 -309.803,123.258 C-311.559,121.932 -312.276,120.126 -311.955,117.84 C-311.663,115.766 -310.593,114.06 -308.743,112.723 C-306.893,111.386 -304.105,110.98 -300.38,111.503 C-295.767,112.152 -292.668,113.829 -291.084,116.533 C-290.234,118.013 -289.826,120.023 -289.86,122.565 L-283.923,123.4 C-283.194,118.215 -284.373,114.202 -287.459,111.361 C-290.546,108.521 -294.533,106.757 -299.422,106.07 C-304.735,105.323 -309.029,106.089 -312.307,108.37 C-315.584,110.65 -317.518,113.885 -318.107,118.076 C-318.652,121.949 -317.579,125.067 -314.89,127.431 C-313.333,128.794 -310.557,130.231 -306.561,131.743 L-300.444,134.059 C-297.125,135.325 -294.736,136.599 -293.276,137.884 C-291.841,139.186 -291.302,141.108 -291.659,143.647 C-292.135,147.034 -294.349,149.118 -298.301,149.901 C-300.343,150.304 -302.549,150.339 -304.92,150.006 C-310.211,149.262 -313.687,147.198 -315.348,143.813 C-316.216,142.008 -316.539,139.772 -316.315,137.105 L-322.252,136.27 Z M-280.08,157.545 L-274.588,158.317 L-272.794,145.555 L-267.384,141.848 L-259.191,160.482 L-251.889,161.509 L-262.645,138.306 L-247.838,127.405 L-255.14,126.379 L-271.838,138.761 L-268.031,111.681 L-273.523,110.909 L-280.08,157.545 Z M-234.492,157.512 L-239.711,128.548 L-246.188,127.637 L-238.535,164.39 C-238.938,165.11 -239.578,166.208 -240.454,167.681 C-241.331,169.155 -241.834,169.97 -241.963,170.124 C-242.373,170.584 -242.852,170.954 -243.398,171.233 C-243.944,171.513 -244.747,171.578 -245.805,171.429 C-246.144,171.382 -246.531,171.295 -246.966,171.169 C-247.402,171.043 -248.098,170.772 -249.054,170.357 L-249.786,175.564 C-249.175,175.822 -248.657,176.014 -248.232,176.139 C-247.807,176.263 -247.192,176.382 -246.388,176.495 C-243.086,176.959 -240.624,176.334 -239.002,174.62 C-237.379,172.905 -234.307,167.941 -229.786,159.728 C-227.871,156.242 -225.466,151.724 -222.57,146.174 C-218.706,138.796 -216.218,134.074 -215.107,132.007 L-221.425,131.119 L-234.492,157.512 Z M-214.935,166.705 L-209.221,167.508 L-206.685,149.476 C-206.069,145.095 -204.76,142.192 -202.758,140.769 C-200.756,139.345 -198.675,138.785 -196.516,139.089 C-194.146,139.422 -192.638,140.443 -191.994,142.153 C-191.592,143.288 -191.554,145.01 -191.878,147.317 L-194.998,169.508 L-189.188,170.325 L-186.408,150.546 C-185.914,147.033 -184.751,144.639 -182.921,143.364 C-181.091,142.089 -179.054,141.609 -176.81,141.924 C-175.181,142.153 -173.859,142.771 -172.846,143.777 C-171.833,144.782 -171.485,146.418 -171.804,148.682 L-175.124,172.302 L-169.188,173.137 L-166.005,150.501 C-165.583,147.496 -165.691,145.042 -166.33,143.139 C-167.516,139.605 -170.396,137.517 -174.967,136.874 C-177.105,136.573 -179.092,136.742 -180.93,137.379 C-182.768,138.016 -184.45,139.156 -185.976,140.797 C-186.529,139.209 -187.218,137.968 -188.042,137.075 C-189.506,135.51 -191.592,134.536 -194.301,134.156 C-196.693,133.819 -198.921,134.164 -200.986,135.191 C-202.194,135.798 -203.593,136.842 -205.182,138.324 L-204.504,133.498 L-210.155,132.704 L-214.935,166.705 Z M-160.775,174.32 L-154.965,175.136 L-150.207,141.294 L-156.017,140.477 L-160.775,174.32 Z M-155.128,134.16 L-149.319,134.976 L-148.408,128.5 L-154.218,127.683 L-155.128,134.16 Z M-146.171,176.373 L-140.457,177.176 L-133.9,130.54 L-139.614,129.736 L-146.171,176.373 Z M-112.838,145.609 C-110.425,145.949 -108.166,146.843 -106.061,148.294 C-103.955,149.745 -102.437,151.453 -101.504,153.419 C-100.602,155.294 -100.122,157.401 -100.062,159.74 C-99.9437,161.354 -100.126,163.875 -100.608,167.304 L-125.529,163.8 C-125.908,167.265 -125.482,170.147 -124.252,172.446 C-123.021,174.745 -120.808,176.119 -117.612,176.568 C-114.628,176.988 -112.108,176.338 -110.054,174.62 C-108.877,173.62 -107.971,172.398 -107.337,170.955 L-101.718,171.745 C-102.041,172.973 -102.729,174.295 -103.781,175.712 C-104.833,177.129 -105.945,178.252 -107.119,179.079 C-109.093,180.528 -111.402,181.369 -114.046,181.602 C-115.469,181.747 -117.049,181.698 -118.784,181.454 C-123.017,180.859 -126.388,178.814 -128.897,175.321 C-131.406,171.828 -132.271,167.309 -131.491,161.764 C-130.723,156.303 -128.618,152.078 -125.176,149.087 C-121.734,146.096 -117.621,144.937 -112.838,145.609 Z M-105.842,161.938 C-105.727,159.429 -105.989,157.375 -106.627,155.774 C-107.806,152.802 -110.227,151.059 -113.888,150.544 C-116.513,150.175 -118.847,150.813 -120.891,152.457 C-122.935,154.102 -124.216,156.377 -124.732,159.283 L-105.842,161.938 Z M-96.3206,172.504 C-96.6486,175.911 -95.9211,178.911 -94.1381,181.503 C-92.355,184.096 -88.9344,185.748 -83.876,186.459 C-79.1774,187.12 -75.5252,186.511 -72.9194,184.632 C-70.3135,182.754 -68.7978,180.302 -68.3723,177.275 C-67.9319,174.143 -68.7202,171.69 -70.7371,169.917 C-72.0031,168.79 -74.6191,167.44 -78.5852,165.868 L-82.2336,164.416 C-83.8279,163.782 -85.0112,163.141 -85.7834,162.493 C-87.1188,161.398 -87.6823,160.11 -87.474,158.629 C-87.2836,157.274 -86.5747,156.262 -85.3475,155.593 C-84.1203,154.924 -82.4273,154.741 -80.2685,155.045 C-77.0303,155.5 -74.8608,156.571 -73.7598,158.258 C-73.1044,159.43 -72.8145,160.668 -72.8902,161.974 L-67.4932,162.733 C-67.1414,160.538 -67.5406,158.388 -68.6908,156.284 C-70.5329,152.96 -74.0148,150.938 -79.1367,150.218 C-83.0521,149.668 -86.3085,150.224 -88.9058,151.888 C-91.503,153.552 -93.0278,155.992 -93.4801,159.209 C-93.864,161.939 -92.937,164.249 -90.6991,166.14 C-89.4484,167.222 -87.4238,168.327 -84.6254,169.454 L-80.2463,171.235 C-77.8987,172.191 -76.3449,172.96 -75.5849,173.542 C-74.401,174.485 -73.9117,175.687 -74.117,177.147 C-74.3878,179.073 -75.3922,180.384 -77.1302,181.078 C-78.8681,181.773 -80.7953,181.971 -82.9118,181.674 C-86.4675,181.174 -88.8355,179.902 -90.0158,177.858 C-90.656,176.732 -90.9269,175.205 -90.8284,173.276 L-96.3206,172.504 Z M-306.718,185.128 C-313.109,184.229 -318.625,185.698 -323.266,189.535 C-328.147,193.554 -331.137,199.468 -332.235,207.278 C-333.336,215.109 -332.033,221.573 -328.325,226.67 C-324.849,230.806 -320.349,233.263 -314.825,234.039 C-310.55,234.64 -306.916,234.353 -303.923,233.176 C-302.144,232.498 -300.021,231.135 -297.553,229.086 L-296.872,235.301 L-292.809,235.872 L-289.3,210.919 L-309.777,208.04 L-310.514,213.278 L-295.91,215.331 C-296.741,220.783 -298.71,224.537 -301.815,226.593 C-304.921,228.649 -308.58,229.381 -312.792,228.789 C-318.294,228.015 -322.018,225.717 -323.963,221.893 C-325.907,218.069 -326.489,213.384 -325.71,207.839 C-324.808,201.426 -322.653,196.808 -319.246,193.985 C-315.838,191.162 -311.975,190.054 -307.658,190.661 C-304.017,191.173 -301.111,192.375 -298.938,194.267 C-296.765,196.159 -295.537,198.862 -295.254,202.377 L-289,203.256 C-289.18,197.015 -291.416,192.351 -295.709,189.266 C-298.667,187.123 -302.337,185.744 -306.718,185.128 Z M-269.782,235.354 C-273.232,234.869 -275.581,233.309 -276.829,230.673 C-278.077,228.037 -278.447,224.909 -277.938,221.29 C-277.408,217.523 -276.162,214.417 -274.2,211.974 C-272.238,209.53 -269.511,208.554 -266.018,209.045 C-262.082,209.598 -259.529,211.554 -258.361,214.913 C-257.625,217.045 -257.48,219.699 -257.927,222.873 C-258.421,226.387 -259.573,229.478 -261.384,232.148 C-263.194,234.818 -265.994,235.887 -269.782,235.354 Z M-265.159,204.083 C-270.048,203.395 -274.18,204.541 -277.556,207.52 C-280.932,210.498 -283.021,214.845 -283.825,220.559 C-284.575,225.893 -283.796,230.335 -281.49,233.886 C-279.183,237.437 -275.691,239.541 -271.014,240.199 C-265.405,240.988 -261.016,239.781 -257.846,236.579 C-254.677,233.377 -252.707,229.035 -251.936,223.554 C-251.138,217.882 -252.048,213.372 -254.663,210.026 C-257.279,206.68 -260.778,204.699 -265.159,204.083 Z M-247.474,242.246 L-241.76,243.05 L-235.202,196.413 L-240.917,195.61 L-247.474,242.246 Z M-227.234,228.16 C-226.633,223.885 -225.284,220.772 -223.186,218.822 C-221.088,216.873 -218.6,216.1 -215.721,216.505 C-213.139,216.868 -211.115,218.205 -209.648,220.515 C-208.182,222.826 -207.751,226.129 -208.355,230.426 C-208.953,234.68 -210.264,237.825 -212.287,239.86 C-214.311,241.896 -216.646,242.728 -219.291,242.356 C-222.699,241.877 -225.002,240.301 -226.202,237.629 C-227.402,234.957 -227.746,231.8 -227.234,228.16 Z M-216.1,211.369 C-220.798,210.708 -224.667,212.015 -227.707,215.289 C-230.746,218.563 -232.614,222.677 -233.311,227.629 C-234.055,232.92 -233.264,237.354 -230.94,240.929 C-228.615,244.504 -225.558,246.558 -221.77,247.09 C-219.42,247.421 -217.27,247.248 -215.319,246.573 C-213.368,245.897 -211.579,244.606 -209.951,242.698 L-210.616,247.428 L-205.473,248.151 L-198.893,201.356 L-204.385,200.584 L-206.8,217.759 C-207.868,215.99 -208.865,214.717 -209.792,213.939 C-211.394,212.592 -213.497,211.735 -216.1,211.369 Z " fill="#3f2900" fill-opacity="1.00" />			<path d="M-292.913,63.1368 L-285.346,9.47638 L-268.553,11.8444 C-260.91,12.9223 -255.705,16.0982 -252.94,21.3723 C-250.174,26.6464 -249.402,33.6124 -250.622,42.2704 C-250.94,44.5221 -251.522,46.9306 -252.369,49.4958 C-253.815,53.7878 -255.673,57.2131 -257.942,59.7718 C-260.786,62.9611 -264.134,64.9148 -267.987,65.6329 C-270.142,66.0082 -272.822,65.97 -276.025,65.5183 L-292.913,63.1368 Z M-303.567,69.8823 L-275.357,73.8604 C-263.37,75.5509 -254.171,71.4465 -247.761,61.5471 C-244.125,55.9467 -241.784,49.4359 -240.737,42.0148 C-239.382,32.4054 -240.634,24.1912 -244.491,17.3723 C-248.826,9.80686 -255.798,5.3466 -265.408,3.9915 L-293.713,-7.81597e-14 L-303.567,69.8823 Z M-206.217,30.484 C-213.384,29.4732 -219.548,31.2078 -224.708,35.6877 C-229.868,40.1676 -233.025,46.4986 -234.179,54.6809 C-235.35,62.99 -234.057,69.7626 -230.3,74.9987 C-226.542,80.2347 -221.492,83.3 -215.149,84.1945 C-212.549,84.5612 -210.182,84.6362 -208.049,84.4195 C-204.086,84.0726 -200.626,82.814 -197.667,80.6436 C-195.908,79.4038 -194.239,77.7227 -192.662,75.6 C-191.085,73.4774 -190.054,71.4962 -189.568,69.6564 L-197.988,68.469 C-198.94,70.6312 -200.298,72.4613 -202.062,73.9592 C-205.142,76.533 -208.917,77.5045 -213.389,76.874 C-218.178,76.1986 -221.494,74.1381 -223.337,70.6922 C-225.18,67.2464 -225.816,62.9275 -225.246,57.7358 L-187.902,63.0019 C-187.178,57.8641 -186.904,54.0861 -187.08,51.6677 C-187.168,48.162 -187.887,45.0041 -189.237,42.1937 C-190.633,39.2475 -192.908,36.6868 -196.062,34.5116 C-199.216,32.3364 -202.601,30.9938 -206.217,30.484 Z M-224.048,50.9666 C-223.273,46.6124 -221.353,43.2039 -218.288,40.7412 C-215.224,38.2784 -211.726,37.3243 -207.793,37.8789 C-202.307,38.6526 -198.681,41.2663 -196.915,45.7201 C-195.96,48.119 -195.569,51.1983 -195.743,54.9581 L-224.048,50.9666 Z M-180.358,87.257 L-171.795,88.4646 L-161.94,18.5823 L-170.503,17.3748 L-180.358,87.257 Z M-150.053,39.5684 L-156.951,38.5957 L-157.937,45.5887 L-151.039,46.5614 L-155.796,80.2895 C-156.256,83.5561 -155.917,86.3128 -154.779,88.5596 C-153.64,90.8064 -151.073,92.2116 -147.077,92.7751 C-145.84,92.9495 -144.681,93.0482 -143.601,93.0711 C-142.52,93.0941 -141.469,93.0322 -140.445,92.8854 L-139.493,86.1303 C-140.136,86.1043 -140.696,86.0656 -141.174,86.0144 C-141.652,85.9632 -142.097,85.9085 -142.51,85.8504 C-144.064,85.6312 -145.149,85.3003 -145.766,84.8575 C-146.886,84.085 -147.321,82.8107 -147.071,81.0347 L-142.381,47.7824 L-134.247,48.9295 L-133.261,41.9365 L-141.395,40.7894 L-139.389,26.5655 L-148.047,25.3446 L-150.053,39.5684 Z M-123.406,81.4608 C-122.945,78.1943 -121.293,76.0013 -118.451,74.8819 C-116.772,74.2131 -114.349,73.8917 -111.183,73.9176 L-105.904,73.9829 C-104.291,74.0162 -102.629,73.9271 -100.917,73.7157 C-99.2055,73.5043 -97.7794,73.1393 -96.6389,72.6209 L-97.6116,79.5188 C-98.354,84.7833 -101.267,88.2377 -106.351,89.882 C-109.37,90.8794 -112.386,91.1657 -115.399,90.7408 C-117.873,90.392 -119.913,89.3766 -121.519,87.6945 C-123.126,86.0124 -123.754,83.9345 -123.406,81.4608 Z M-114.117,66.857 C-118.991,66.7843 -123.086,67.8402 -126.402,70.0249 C-129.718,72.2095 -131.709,75.6645 -132.376,80.3899 C-132.984,84.7031 -131.992,88.506 -129.4,91.7988 C-126.808,95.0916 -123.149,97.0711 -118.423,97.7375 C-114.491,98.2921 -110.773,97.9592 -107.269,96.739 C-103.765,95.5188 -100.981,93.89 -98.9143,91.8525 C-98.9151,93.9225 -98.6449,95.5617 -98.1037,96.7701 C-97.0669,99.051 -95.0737,100.399 -92.1243,100.815 C-90.9192,100.985 -89.961,101.072 -89.2499,101.075 C-88.5388,101.078 -87.4904,100.984 -86.1047,100.791 L-85.2125,94.464 C-85.7651,94.4831 -86.2825,94.4829 -86.765,94.4634 C-87.2474,94.4439 -87.6789,94.4073 -88.0595,94.3536 C-89.2329,94.1881 -89.9639,93.8101 -90.2526,93.2195 C-90.5413,92.629 -90.623,91.8897 -90.4978,91.0017 L-86.3587,61.6502 C-85.6789,56.8296 -87.0333,53.016 -90.4219,50.2093 C-93.8422,47.3982 -98.5493,45.5699 -104.543,44.7247 C-109.713,43.9957 -114.429,44.584 -118.692,46.4895 C-122.956,48.395 -125.609,52.4763 -126.653,58.7334 L-118.661,59.8604 C-117.973,57.2728 -117.012,55.3869 -115.777,54.2024 C-113.566,52.056 -110.225,51.2981 -105.753,51.9287 C-101.884,52.4743 -99.0037,53.5517 -97.112,55.1607 C-95.2203,56.7698 -94.4802,59.0332 -94.8917,61.9509 C-95.0929,63.378 -95.4375,64.4454 -95.9254,65.1528 C-96.7882,66.4543 -98.2206,67.0933 -100.223,67.0697 L-114.117,66.857 Z " fill="#f8f7f4" fill-opacity="1.00" />		</g>	</svg>