<?xml version="1.0" encoding="utf-8" ?>	<!-- Generator: Assembly 1.8 - http://assemblyapp.co -->	<svg version="1.1" xmlns="http://www.w3.org/2000/svg" xmlns:xlink="http://www.w3.org/1999/xlink" width="2048.00" height="1358.15" viewBox="0 0 2048.0 1358.1473956890588">		<g id="document" transform="matrix(1,0,0,1,1024.0,679.0736978445294)">			<path d="M1161.54,34.6597 L1161.54,-830.016 L-1138.46,-830.016 L-1138.46,34.6597 L1161.54,34.6597 Z " fill="#6db0d4" fill-opacity="1.00" />			<path d="M388.674,2.89196 L440.403,2.89196 L388.674,-34.8133 L322.23,-34.8133 L221.989,-63.5522 L116.46,-34.8133 L-38.7298,-63.5522 L-128.855,-34.8133 L-277.377,-63.5522 L-181.044,2.89196 L388.674,2.89196 Z " fill="#313654" fill-opacity="1.00" />			<path d="M-971.92,440.047 L1033.56,440.047 L1091.88,-6.62261 L-971.92,-6.62261 L-971.92,440.047 Z " fill="#bed2d9" fill-opacity="1.00" />			<path d="M314.978,1.04116e-07 L1320.78,1.04116e-07 C1241.86,1.04116e-07 1196.13,-183.179 1089.59,-183.179 C1025.91,-183.179 998.311,-110.238 923.621,-110.238 C811.587,-110.238 788.514,-183.179 682.138,-183.179 C506.718,-183.179 475.485,1.04116e-07 314.978,1.04116e-07 L314.978,1.04116e-07 Z " fill="#556a4a" fill-opacity="1.00" />			<path d="M411.599,2.21063e-08 L1356.95,2.21063e-08 C1112.39,2.21063e-08 1087.78,-244.561 952.716,-244.561 C817.648,-244.561 656.161,2.21063e-08 411.599,2.21063e-08 Z " fill="#c98855" fill-opacity="1.00" />			<path d="M-349.264,-454.309 C-362.939,-454.309 -375.563,-450.452 -386.082,-444.14 C-401.862,-469.036 -429.563,-485.868 -461.122,-485.868 C-500.045,-485.868 -533.006,-460.971 -544.928,-425.555 C-551.591,-428.01 -558.604,-429.412 -565.968,-429.412 C-599.28,-429.412 -625.929,-402.763 -625.929,-369.451 C-625.929,-336.139 -599.28,-309.489 -565.968,-309.489 L-349.965,-309.489 C-309.64,-309.489 -277.38,-341.749 -277.38,-382.074 C-277.029,-421.698 -309.64,-454.309 -349.264,-454.309 Z " fill="#c6effe" fill-opacity="1.00" />			<path d="M-1288.01,36.4329 L-1081.19,209.911 C-1081.19,209.911 -794.61,73.0259 -663.793,102.842 C-532.976,132.659 -480.543,17.4587 -349.965,66.2494 C-219.387,115.04 -91.5895,36.4329 -91.5895,36.4329 L-231.825,-125.895 L-407.829,-208.863 L-515.648,-308.676 L-663.793,-337.523 L-843.311,-393.09 L-1053.72,-393.09 L-1053.72,-308.676 L-1081.19,-125.895 L-1119.67,-139.122 C-1119.67,-139.122 -1277.19,25.611 -1288.01,36.4329 Z " fill="#556a4a" fill-opacity="1.00" />			<path d="M441.759,152.075 L1689.92,210.353 C1591.78,210.353 1537.61,-75.7367 1405.11,-75.7367 C1325.92,-75.7367 1291.59,14.9771 1198.7,14.9771 C1059.37,14.9771 1030.68,-75.7367 898.381,-75.7367 C680.218,-75.7367 568.839,63.8944 483.005,152.075 L441.759,152.075 Z " fill="#556a4a" fill-opacity="1.00" />			<path d="M-889.078,267.972 L-919.729,149.323 L-1017.61,50.9431 L-1059.14,31.1683 L-1096.71,35.1232 L-1120.94,5.95537 L-1214.87,-98.3568 L-1282.6,-51.886 L-1297.92,-27.1675 L-1379.99,267.972 L-889.078,267.972 Z " fill="#6a5c4a" fill-opacity="1.00" />			<path d="M1346.71,186.544 L817.684,404.085 L317.817,404.085 L-179.808,404.085 L-679.675,330.076 L-1213.18,186.544 L-1213.18,750.84 L1286.15,679.074 L1346.71,186.544 Z " fill="#2f5d2d" fill-opacity="1.00" />			<path d="M-684.412,353.309 C-665.687,348.979 -651.714,332.235 -651.714,312.193 C-651.714,292.152 -665.687,275.408 -684.412,271.078 C-670.36,257.966 -666.632,236.478 -676.653,219.122 C-686.672,201.765 -707.146,194.251 -725.527,199.864 C-719.914,181.483 -727.428,161.01 -744.785,150.989 C-762.142,140.968 -783.629,144.697 -796.742,158.749 C-801.071,140.024 -817.815,126.05 -837.857,126.05 C-857.899,126.05 -874.642,140.024 -878.972,158.749 C-892.084,144.697 -913.572,140.968 -930.928,150.989 C-948.285,161.01 -955.799,181.483 -950.186,199.864 C-968.568,194.251 -989.041,201.765 -999.061,219.122 C-1009.08,236.478 -1005.35,257.966 -991.301,271.078 C-1010.03,275.408 -1024,292.152 -1024,312.193 C-1024,332.235 -1010.03,348.979 -991.301,353.309 L-684.412,353.309 Z " fill="#287d26" fill-opacity="1.00" />			<path d="M-659.899,371.703 C-642.804,367.75 -630.049,352.464 -630.049,334.169 C-630.049,315.873 -642.804,300.588 -659.899,296.635 C-647.071,284.665 -643.667,265.049 -652.815,249.205 C-661.962,233.36 -680.652,226.5 -697.432,231.625 C-692.308,214.845 -699.168,196.155 -715.012,187.007 C-730.857,177.859 -750.473,181.263 -762.443,194.091 C-766.395,176.997 -781.68,164.241 -799.976,164.241 C-818.272,164.241 -833.557,176.997 -837.51,194.091 C-849.48,181.263 -869.095,177.859 -884.94,187.007 C-900.785,196.155 -907.645,214.845 -902.52,231.625 C-919.301,226.5 -937.99,233.36 -947.137,249.205 C-956.285,265.049 -952.882,284.665 -940.054,296.635 C-957.148,300.588 -969.904,315.873 -969.904,334.169 C-969.904,352.464 -957.148,367.75 -940.054,371.703 L-659.899,371.703 Z " fill="#d5ad39" fill-opacity="1.00" />			<path d="M1104.95,455.293 C1123.67,450.963 1137.65,434.218 1137.65,414.177 C1137.65,394.136 1123.67,377.392 1104.95,373.062 C1119,359.949 1122.73,338.462 1112.71,321.106 C1102.69,303.749 1082.21,296.235 1063.83,301.848 C1069.45,283.466 1061.93,262.993 1044.57,252.972 C1027.22,242.952 1005.73,246.681 992.618,260.733 C988.288,242.008 971.545,228.034 951.503,228.034 C931.461,228.034 914.717,242.008 910.388,260.733 C897.275,246.681 875.788,242.952 858.431,252.972 C841.074,262.993 833.56,283.466 839.173,301.848 C820.792,296.235 800.318,303.749 790.299,321.106 C780.278,338.462 784.006,359.949 798.058,373.062 C779.333,377.392 765.36,394.136 765.36,414.177 C765.36,434.218 779.333,450.963 798.058,455.293 L1104.95,455.293 Z " fill="#d5ad39" fill-opacity="1.00" />			<path d="M776.296,-397.678 C785.763,-409.6 791.725,-424.328 791.725,-441.159 C791.725,-479.381 761.218,-510.238 722.996,-510.238 C718.087,-510.238 713.529,-509.887 708.97,-508.835 C694.243,-542.849 659.879,-567.044 619.904,-567.044 C568.709,-567.044 526.981,-527.069 523.124,-477.277 C517.163,-479.381 510.851,-480.783 503.838,-480.783 C470.526,-480.783 443.876,-454.134 443.876,-420.821 C443.876,-413.107 445.629,-405.042 448.084,-398.029 L776.296,-397.678 Z " fill="#c6effe" fill-opacity="1.00" />			<g>				<g>					<path d="M57.5292,226.798 C57.5292,225.637 56.5879,224.695 55.4267,224.695 C54.2655,224.695 53.3242,225.637 53.3242,226.798 C53.3242,227.959 54.2655,228.9 55.4267,228.9 C56.5879,228.9 57.5292,227.959 57.5292,226.798 Z " fill="#e6e6e6" fill-opacity="1.00" />					<path d="M57.5292,252.729 C57.5292,251.567 56.5879,250.626 55.4267,250.626 C54.2655,250.626 53.3242,251.567 53.3242,252.729 C53.3242,253.89 54.2655,254.831 55.4267,254.831 C56.5879,254.831 57.5292,253.89 57.5292,252.729 Z " fill="#e6e6e6" fill-opacity="1.00" />					<path d="M57.5292,278.659 C57.5292,277.498 56.5879,276.557 55.4267,276.557 C54.2655,276.557 53.3242,277.498 53.3242,278.659 C53.3242,279.821 54.2655,280.762 55.4267,280.762 C56.5879,280.762 57.5292,279.821 57.5292,278.659 Z " fill="#e6e6e6" fill-opacity="1.00" />					<path d="M57.5292,304.941 C57.5292,303.779 56.5879,302.838 55.4267,302.838 C54.2655,302.838 53.3242,303.779 53.3242,304.941 C53.3242,306.102 54.2655,307.043 55.4267,307.043 C56.5879,307.043 57.5292,306.102 57.5292,304.941 Z " fill="#e6e6e6" fill-opacity="1.00" />				</g>				<path d="M-158.328,31.265 C-236.471,38.6238 -288.332,177.389 -277.82,346.64 C-233.317,386.938 -179.353,408.314 -123.636,403.057 C-67.5697,397.801 -18.8617,366.614 17.5817,318.607 C-3.44337,150.757 -80.1847,23.9063 -158.328,31.265 Z " fill="#d9e0e2" fill-opacity="1.00" />				<path d="M-84.755,84.2002 C-91.4631,64.2002 -125.906,57.7157 -161.686,69.7164 C-197.466,81.7172 -221.033,107.659 -214.325,127.659 C-207.617,147.659 -173.173,154.143 -137.394,142.143 C-101.614,130.142 -78.0469,104.2 -84.755,84.2002 Z " fill="#fff4c7" fill-opacity="1.00" />				<path d="M-101.065,68.4639 C-108.758,45.5282 -139.686,35.2168 -170.144,45.4329 C-200.603,55.649 -219.058,82.5238 -211.366,105.46 C-203.673,128.395 -172.745,138.707 -142.286,128.49 C-111.828,118.274 -93.3723,91.3996 -101.065,68.4639 Z " fill="#945300" fill-opacity="1.00" />				<g>					<path d="M-195.472,92.9384 C-194.771,91.1863 -195.472,89.7847 -197.574,89.4342 C-197.925,89.0838 -198.626,89.0838 -198.976,89.0838 C-198.976,89.0838 -198.976,88.7334 -198.976,88.7334 C-199.326,87.3317 -201.079,86.6309 -202.48,86.9813 C-202.831,86.9813 -203.181,87.3317 -203.531,87.6822 C-203.531,87.6822 -203.882,87.3317 -203.882,87.3317 C-205.284,86.6309 -207.036,86.9813 -207.736,88.383 C-208.087,88.7334 -208.087,89.4342 -208.087,89.7847 C-208.087,89.7847 -208.437,89.7847 -208.437,89.7847 C-210.189,89.7847 -211.241,91.5367 -210.89,92.9384 C-210.89,93.6392 -210.89,93.9897 -210.54,94.3401 C-210.54,94.3401 -210.89,94.6905 -210.89,94.6905 C-211.941,96.0922 -211.591,97.8443 -210.54,98.8955 C-210.189,99.2459 -209.839,99.5963 -209.489,99.5963 C-209.489,99.5963 -209.489,99.5963 -209.489,99.9467 C-209.489,101.348 -208.437,102.75 -206.685,102.75 C-205.984,102.75 -205.634,102.75 -205.284,102.4 C-205.284,102.4 -204.933,102.75 -204.933,102.75 C-203.882,103.801 -202.13,104.152 -200.728,103.101 C-200.378,102.75 -200.378,102.4 -200.027,102.049 C-200.027,102.049 -199.677,102.049 -199.677,102.049 C-197.925,102.4 -196.523,101.348 -196.173,99.9467 C-196.173,99.5963 -196.173,98.8955 -196.173,98.5451 C-196.173,98.1947 -195.822,98.1947 -195.822,98.1947 C-194.421,97.4938 -194.07,95.7418 -194.771,94.3401 C-195.121,93.9897 -195.472,93.6392 -195.822,93.2888 C-195.472,93.2888 -195.472,92.9384 -195.472,92.9384 Z " fill="#ffffff" fill-opacity="1.00" />					<path d="M-181.806,78.2209 C-181.455,76.8192 -182.156,75.0671 -183.908,74.7167 C-184.259,74.3663 -184.959,74.3663 -185.31,74.3663 C-185.31,74.3663 -185.31,74.0159 -185.31,74.0159 C-185.66,72.6142 -187.412,71.9134 -188.814,72.2638 C-189.164,72.2638 -189.515,72.6142 -189.865,72.9646 C-189.865,72.9646 -190.216,72.6142 -190.216,72.6142 C-191.617,71.9134 -193.369,72.2638 -194.07,73.6655 C-194.421,74.0159 -194.421,74.7167 -194.421,75.0671 C-194.421,75.0671 -194.771,75.0671 -194.771,75.0671 C-196.523,75.0671 -197.574,76.8192 -197.224,78.2209 C-197.224,78.9217 -197.224,79.2721 -196.874,79.6225 C-196.874,79.6225 -197.224,79.973 -197.224,79.973 C-198.275,81.3746 -197.925,83.1267 -196.874,84.178 C-196.523,84.5284 -196.173,84.8788 -195.822,84.8788 C-195.822,84.8788 -195.822,84.8788 -195.822,85.2292 C-195.822,86.6309 -194.771,88.0326 -193.019,88.0326 C-192.318,88.0326 -191.968,88.0326 -191.617,87.6821 C-191.617,87.6821 -191.267,88.0326 -191.267,88.0326 C-190.216,89.0838 -188.464,89.4342 -187.062,88.383 C-186.711,88.0326 -186.711,87.6821 -186.361,87.3317 C-186.361,87.3317 -186.361,87.3317 -186.011,87.3317 C-184.259,87.6821 -182.857,86.6309 -182.506,85.2292 C-182.506,84.8788 -182.506,84.178 -182.506,83.8276 C-182.506,83.4771 -182.156,83.4771 -182.156,83.4771 C-180.754,82.7763 -180.404,81.0242 -181.105,79.6225 C-181.455,79.2721 -181.806,78.9217 -182.156,78.5713 C-181.806,78.5713 -181.806,78.2209 -181.806,78.2209 Z " fill="#ffffff" fill-opacity="1.00" />					<path d="M-164.986,68.4092 C-164.285,67.0075 -164.986,65.2555 -167.088,64.905 C-167.439,64.5546 -168.139,64.5546 -168.49,64.5546 C-168.49,64.5546 -168.49,64.2042 -168.49,64.2042 C-168.84,62.8026 -170.592,62.1017 -171.994,62.4521 C-172.344,62.4521 -172.695,62.8026 -173.045,63.153 C-173.045,63.153 -173.396,62.8026 -173.396,62.8026 C-174.797,62.1017 -176.549,62.4521 -177.25,63.8538 C-177.601,64.2042 -177.601,64.905 -177.601,65.2555 C-177.601,65.2555 -177.951,65.2555 -177.951,65.2555 C-179.703,65.2555 -180.754,67.0075 -180.404,68.4092 C-180.404,69.11 -180.404,69.4605 -180.054,69.8109 C-180.054,69.8109 -180.404,70.1613 -180.404,70.1613 C-181.455,71.563 -181.105,73.3151 -180.054,74.3663 C-179.703,74.7167 -179.353,75.0671 -179.002,75.0671 C-179.002,75.0671 -179.002,75.4176 -179.002,75.4176 C-179.002,76.8192 -177.951,78.2209 -176.199,78.2209 C-175.498,78.2209 -175.148,78.2209 -174.797,77.8705 C-174.797,77.8705 -174.447,78.2209 -174.447,78.2209 C-173.396,79.2721 -171.644,79.6226 -170.242,78.5713 C-169.891,78.2209 -169.891,77.8705 -169.541,77.5201 C-169.541,77.5201 -169.191,77.5201 -169.191,77.5201 C-167.439,77.8705 -166.037,76.8192 -165.686,75.4176 C-165.686,75.0671 -165.686,74.3663 -165.686,74.0159 C-165.686,73.6655 -165.336,73.6655 -165.336,73.6655 C-163.934,72.9646 -163.584,71.2125 -164.285,69.8109 C-164.635,69.4605 -164.986,69.11 -165.336,68.7596 C-164.986,68.7596 -164.986,68.4092 -164.986,68.4092 Z " fill="#ffffff" fill-opacity="1.00" />					<path d="M-122.585,68.4092 C-122.585,68.4092 -122.235,68.4092 -122.235,68.7596 C-122.235,69.1101 -122.585,69.4605 -122.235,70.1613 C-121.884,71.563 -120.483,72.9646 -119.081,72.6142 C-119.081,72.6142 -118.731,72.6142 -118.731,72.6142 C-118.731,72.9646 -118.38,73.3151 -118.03,73.6655 C-116.978,74.7167 -114.876,74.7167 -113.825,73.3151 C-113.825,73.3151 -113.474,72.9646 -113.474,72.9646 C-113.124,73.3151 -112.773,73.3151 -112.073,73.3151 C-110.321,73.3151 -109.269,72.2638 -109.269,70.5117 C-109.269,70.5117 -109.269,70.1613 -109.269,70.1613 C-108.919,70.1613 -108.568,69.8109 -108.218,69.4605 C-106.816,68.4092 -106.816,66.6571 -107.868,65.2555 C-107.868,65.2555 -108.218,64.905 -108.218,64.905 C-107.868,64.5546 -107.868,64.2042 -107.517,63.5034 C-107.167,62.1017 -108.218,60.3496 -109.62,59.9992 C-109.97,59.9992 -109.97,59.9992 -109.97,59.9992 C-109.97,59.6488 -109.97,58.948 -110.321,58.5975 C-111.021,57.1959 -112.773,56.8454 -114.175,57.5463 C-114.175,57.5463 -114.526,57.8967 -114.526,57.8967 C-114.876,57.5463 -115.226,57.1959 -115.577,57.1959 C-116.978,56.495 -118.731,57.1959 -119.431,58.948 C-119.431,58.948 -119.431,59.2984 -119.431,59.2984 C-119.782,59.2984 -120.483,59.2984 -120.833,59.2984 C-122.235,59.6488 -123.286,61.4009 -122.585,62.8025 C-122.585,62.8025 -122.585,63.153 -122.235,63.153 C-122.585,63.5034 -122.936,63.8538 -123.286,64.2042 C-124.337,65.6059 -123.987,67.358 -122.585,68.4092 Z " fill="#ffffff" fill-opacity="1.00" />					<path d="M-141.858,64.905 C-141.858,64.905 -141.508,64.905 -141.508,65.2555 C-141.508,65.6059 -141.858,65.9563 -141.508,66.6571 C-141.157,68.0588 -139.756,69.4605 -138.354,69.1101 C-138.354,69.1101 -138.004,69.1101 -138.004,69.1101 C-138.004,69.4605 -137.653,69.8109 -137.303,70.1613 C-136.251,71.2126 -134.149,71.2126 -133.098,69.8109 C-133.098,69.8109 -132.747,69.4605 -132.747,69.4605 C-132.397,69.8109 -132.046,69.8109 -131.346,69.8109 C-129.593,69.8109 -128.542,68.7596 -128.542,67.0075 C-128.542,67.0075 -128.542,66.6571 -128.542,66.6571 C-128.192,66.6571 -127.841,66.3067 -127.491,65.9563 C-126.089,64.905 -126.089,63.153 -127.141,61.7513 C-127.141,61.7513 -127.491,61.4009 -127.491,61.4009 C-127.141,61.0505 -127.141,60.7 -126.79,60.3496 C-126.44,58.948 -127.491,57.1959 -128.893,56.8454 C-128.893,56.8454 -129.243,56.8454 -129.243,56.8454 C-129.243,56.495 -129.243,55.7942 -129.593,55.4438 C-130.294,54.0421 -132.046,53.6917 -133.448,54.3925 C-133.448,54.3925 -133.798,54.7429 -133.798,54.7429 C-134.149,54.3925 -134.499,54.0421 -134.85,54.0421 C-136.251,53.3413 -138.004,54.0421 -138.704,55.7942 C-138.704,55.7942 -138.704,56.1446 -138.704,56.1446 C-139.055,56.1446 -139.756,56.1446 -140.106,56.1446 C-141.508,56.495 -142.559,58.2471 -141.858,59.6488 C-141.858,59.6488 -141.858,59.9992 -141.508,59.9992 C-141.858,60.3496 -142.209,60.7 -142.559,61.0505 C-143.61,62.4521 -143.26,64.2042 -141.858,64.905 Z " fill="#ffffff" fill-opacity="1.00" />					<path d="M-161.481,67.358 C-161.481,67.358 -161.131,67.358 -161.131,67.7084 C-161.131,68.0588 -161.481,68.7596 -161.131,69.11 C-160.781,70.5117 -159.379,71.9134 -157.977,71.563 C-157.977,71.563 -157.627,71.563 -157.627,71.563 C-157.627,71.9134 -157.276,72.2638 -156.926,72.6142 C-155.875,73.6655 -153.772,73.6655 -152.721,72.2638 C-152.721,72.2638 -152.371,71.9134 -152.371,71.9134 C-152.02,72.2638 -151.67,72.2638 -150.969,72.2638 C-149.217,72.2638 -148.166,71.2126 -148.166,69.4605 C-148.166,69.4605 -148.166,69.11 -148.166,69.11 C-147.815,69.11 -147.465,68.7596 -147.114,68.4092 C-145.713,67.358 -145.713,65.6059 -146.764,64.2042 C-146.764,64.2042 -147.114,63.8538 -147.114,63.8538 C-146.764,63.5034 -146.764,63.153 -146.414,62.4521 C-146.063,61.0505 -147.114,59.2984 -148.516,58.9479 C-148.866,58.9479 -148.866,58.9479 -148.866,58.9479 C-148.866,58.5975 -148.866,57.8967 -149.217,57.5463 C-149.918,56.1446 -151.67,55.7942 -153.071,56.495 C-153.071,56.495 -153.422,56.8454 -153.422,56.8454 C-153.772,56.495 -154.123,56.1446 -154.473,56.1446 C-155.875,55.4438 -157.627,56.1446 -158.328,57.8967 C-158.328,57.8967 -158.328,58.2471 -158.328,58.2471 C-158.678,58.2471 -159.379,58.2471 -159.729,58.2471 C-161.131,58.5975 -162.182,60.3496 -161.481,61.7513 C-161.481,61.7513 -161.481,62.1017 -161.131,62.1017 C-161.481,62.4521 -161.832,62.8025 -162.182,63.153 C-163.234,64.5546 -162.883,66.3067 -161.481,67.358 Z " fill="#ffffff" fill-opacity="1.00" />				</g>				<path d="M-117.488,237.914 L-79.762,222.776 L-101.163,169.44 L-138.889,184.577 L-117.488,237.914 Z " fill="#e7b791" fill-opacity="1.00" />				<path d="M-52.1835,117.168 C-64.2459,81.205 -111.805,64.7232 -158.411,80.355 C-205.016,95.9868 -233.019,137.813 -220.957,173.776 C-208.894,209.739 -161.335,226.221 -114.729,210.589 C-68.1239,194.957 -40.1212,153.131 -52.1835,117.168 Z " fill="#ffd8b8" fill-opacity="1.00" />				<path d="M-223.856,155.663 C-180.054,77.5201 -96.3039,78.5713 -60.5613,101.699 C-98.7568,30.2137 -229.462,58.2471 -223.856,155.663 Z " fill="#945300" fill-opacity="1.00" />				<g>					<path d="M-107.038,133.439 C-108.577,128.852 -111.907,125.832 -114.475,126.694 C-117.044,127.555 -117.879,131.973 -116.34,136.56 C-114.801,141.147 -111.471,144.167 -108.902,143.305 C-106.333,142.443 -105.498,138.026 -107.038,133.439 Z " fill="#666666" fill-opacity="1.00" />					<path d="M-158.231,150.582 C-159.77,145.995 -163.101,142.976 -165.669,143.838 C-168.238,144.7 -169.072,149.117 -167.532,153.704 C-165.993,158.29 -162.663,161.31 -160.094,160.448 C-157.526,159.585 -156.691,155.168 -158.231,150.582 Z " fill="#666666" fill-opacity="1.00" />				</g>				<path d="M-99.1072,159.868 C-107.868,173.534 -139.405,183.696 -157.977,179.491 C-136.602,192.807 -104.714,182.996 -99.1072,159.868 Z " fill="#e7b791" fill-opacity="1.00" />				<path d="M-210.058,166.807 C-215.939,157.246 -225.651,152.536 -231.75,156.287 C-237.85,160.039 -238.027,170.831 -232.146,180.392 C-226.266,189.953 -216.554,194.663 -210.455,190.912 C-204.355,187.16 -204.178,176.368 -210.058,166.807 Z " fill="#ffd8b8" fill-opacity="1.00" />				<path d="M-174.797,251.327 C-191.617,245.37 -199.326,227.499 -190.916,215.234 C-182.506,202.969 -181.806,193.508 -193.019,182.645 C-204.232,171.782 -206.335,162.671 -195.121,153.21 C-183.558,143.749 -180.754,138.843 -184.259,123.074 C-187.763,107.305 -170.943,99.5963 -153.422,94.6905 C-175.849,96.793 -195.822,99.9467 -203.882,113.263 C-211.941,126.578 -221.403,124.476 -223.505,142.347 C-225.608,160.218 -216.847,174.586 -205.634,185.448 C-194.421,196.311 -191.267,202.269 -199.326,214.533 C-207.386,227.148 -201.429,249.575 -174.797,251.327 Z " fill="#945300" fill-opacity="1.00" />				<path d="M-39.2273,116.928 C-40.3038,105.755 -46.9545,97.2542 -54.0822,97.9409 C-61.2099,98.6276 -66.1153,108.242 -65.0389,119.415 C-63.9625,130.588 -57.3117,139.089 -50.184,138.402 C-43.0564,137.716 -38.1509,128.101 -39.2273,116.928 Z " fill="#ffd8b8" fill-opacity="1.00" />				<path d="M-41.6388,206.824 C-21.3146,189.303 -30.0751,167.577 -44.4421,163.022 C-58.4588,158.116 -59.5101,151.458 -57.0572,136.04 C-54.6042,120.621 -56.0059,103.801 -68.6209,90.8359 C-81.2359,77.52 -87.5434,85.2292 -101.911,79.2721 C-116.278,73.315 -134.149,82.7763 -153.422,94.6905 C-136.602,88.383 -118.38,84.178 -111.722,98.8955 C-105.064,113.613 -99.4576,115.715 -84.7401,116.416 C-70.0226,116.767 -66.168,125.527 -68.6209,140.946 C-71.0738,156.364 -64.4159,163.372 -50.3992,168.278 C-36.3826,173.184 -31.8271,191.756 -41.6388,206.824 Z " fill="#945300" fill-opacity="1.00" />				<path d="M-20.9642,203.67 C-45.4934,240.114 -43.7413,253.079 -83.3385,300.035 L-74.578,312.65 C-31.4767,281.813 -36.0322,278.309 -8.69963,259.386 C6.0179,249.224 -6.59711,211.029 -20.9642,203.67 Z " fill="#1a1a1a" fill-opacity="1.00" />				<g>					<path d="M65.5888,633.281 C76.1013,633.281 86.6138,633.281 97.1263,633.281 C100.63,548.831 104.485,464.38 108.34,379.93 C90.118,379.93 71.8963,379.93 53.6746,379.93 C57.8796,464.38 61.7342,548.831 65.5888,633.281 Z " fill="#323232" fill-opacity="1.00" />					<path d="M14.4279,633.281 C24.9404,633.281 35.4529,633.281 45.9654,633.281 C49.4696,548.831 53.3242,464.38 57.1788,379.93 C38.9571,379.93 20.7354,379.93 2.51373,379.93 C6.71873,464.38 10.5733,548.831 14.4279,633.281 Z " fill="#323232" fill-opacity="1.00" />				</g>				<path d="M-2.04171,394.998 L112.194,394.998 L112.194,383.084 L-2.04171,383.084 L-2.04171,394.998 Z " fill="#1a1a1a" fill-opacity="1.00" />				<g>					<path d="M-73.5268,214.533 C-116.628,221.541 -89.9964,257.284 -51.4505,246.421 C-19.5626,236.96 43.5125,202.619 81.0071,168.979 L72.9475,156.714 C28.795,187.201 -31.1263,207.525 -73.5268,214.533 Z " fill="#ffd8b8" fill-opacity="1.00" />					<path d="M71.1955,142.347 C63.1359,149.706 60.6829,160.569 66.2896,166.876 C71.8963,172.833 83.1096,171.782 91.1692,164.423 C99.2288,156.714 101.682,145.851 96.0751,139.894 C93.2717,136.741 84.8617,137.091 79.6055,143.048 C78.2038,139.544 75.05,138.843 71.1955,142.347 Z " fill="#ffd8b8" fill-opacity="1.00" />				</g>				<g>					<path d="M145.133,219.789 L133.57,225.396 C138.476,235.208 143.732,241.165 150.39,243.267 C157.398,245.72 164.757,243.267 172.466,235.909 C174.919,233.806 176.671,233.456 177.722,234.507 C180.526,236.609 182.978,241.515 185.081,245.37 C188.936,253.429 195.243,255.532 202.952,253.429 C208.559,252.028 214.516,248.173 220.473,242.917 L211.713,232.755 C206.807,236.609 202.602,239.763 199.448,240.464 C198.397,240.814 197.696,240.464 196.995,239.413 C194.542,234.156 191.038,227.849 186.132,223.994 C179.474,218.738 171.765,217.687 163.005,226.447 C159.15,229.951 156.347,231.353 154.244,230.652 C151.441,229.951 148.287,226.097 145.133,219.789 Z " fill="#cad3d7" fill-opacity="1.00" />					<path d="M149.689,200.166 L142.33,210.679 C151.091,216.986 158.8,219.789 165.458,218.388 C173.167,216.986 178.423,211.379 181.577,201.217 C182.628,198.064 184.03,197.012 185.431,197.363 C188.936,198.064 193.491,201.217 196.995,203.67 C204.354,208.926 211.012,207.525 216.618,202.269 C220.823,198.414 224.328,192.106 227.131,184.748 L214.516,179.842 C212.413,185.448 209.961,190.004 207.508,192.457 C206.456,193.508 205.756,193.508 204.704,192.807 C200.149,189.653 194.192,185.448 187.884,184.397 C179.474,182.996 172.466,185.448 168.611,197.363 C166.859,202.619 165.107,205.072 163.005,205.422 C159.851,206.123 155.646,204.371 149.689,200.166 Z " fill="#cad3d7" fill-opacity="1.00" />					<path d="M122.356,157.065 C116.75,150.056 106.237,148.655 99.2288,154.261 C97.1263,155.663 95.3743,157.766 94.323,160.218 C93.6222,159.868 92.5709,159.518 91.5197,159.167 C82.4088,157.065 73.6484,162.671 71.5459,171.782 C70.8451,174.235 70.8451,177.038 71.5459,179.491 C70.4946,179.842 69.7938,180.192 68.7426,180.543 C60.683,184.748 57.5292,194.91 61.7342,202.969 C63.1359,205.422 64.888,207.525 66.9905,208.926 C66.2896,209.978 65.9392,210.679 65.5888,211.73 C62.0846,220.14 66.2896,229.951 74.6997,233.456 C77.1526,234.507 79.9559,235.208 82.4088,234.857 C82.7592,235.558 82.7592,236.609 83.1097,237.661 C85.5626,246.421 95.0238,251.327 103.784,248.524 C106.237,247.823 108.69,246.421 110.442,244.669 C111.143,245.37 112.194,245.72 112.895,246.421 C120.604,251.677 131.117,249.224 136.023,241.515 C137.424,239.413 138.125,236.609 138.476,234.156 C139.527,234.156 140.578,234.156 141.629,234.156 C150.74,233.105 157.048,224.695 155.996,215.584 C155.646,212.781 154.595,210.328 153.193,208.226 C153.894,207.525 154.595,206.824 155.296,206.123 C161.603,199.465 160.902,188.953 154.244,182.645 C152.142,180.893 149.689,179.491 147.236,178.791 C147.236,177.739 147.586,176.688 147.586,175.637 C147.937,166.176 140.928,158.466 131.818,158.116 C129.014,157.766 126.561,158.466 124.108,159.518 C123.408,158.817 123.057,157.766 122.356,157.065 Z " fill="#f2f8fa" fill-opacity="1.00" />				</g>				<path d="M112.194,388.69 L132.168,205.773 L87.665,186.149 L23.5387,186.149 C8.82122,192.807 -11.8534,198.063 -20.9642,205.773 L-1.69129,388.69 C-2.04171,388.69 112.194,388.69 112.194,388.69 Z " fill="#323232" fill-opacity="1.00" />				<g>					<path d="M117.801,249.575 C118.852,247.823 118.852,245.37 118.502,243.968 C118.151,243.618 117.451,243.267 117.1,243.267 C117.1,242.917 117.1,242.917 117.1,242.566 C117.1,240.464 115.698,238.712 113.946,238.712 C113.596,238.712 112.895,238.712 112.545,239.062 C112.545,238.712 112.194,238.712 112.194,238.361 C110.793,236.96 109.041,236.609 107.639,238.011 C107.288,238.361 107.288,238.712 106.938,239.413 C106.588,239.062 106.588,239.062 106.237,239.062 C104.485,238.712 103.083,240.114 102.733,242.216 C102.383,242.917 102.733,243.267 102.733,243.968 C102.733,243.968 102.383,244.319 102.383,244.319 C100.981,245.37 100.63,247.823 101.331,249.575 C101.682,250.276 102.032,250.626 102.383,250.976 C102.032,251.327 102.032,251.327 102.032,251.677 C101.331,253.78 102.032,255.882 103.784,256.583 C104.135,256.934 104.835,256.934 105.186,256.934 C105.186,257.284 105.186,257.284 105.186,257.634 C105.536,259.737 107.288,260.788 109.041,260.087 C109.391,259.737 109.741,259.386 110.092,259.036 C110.092,259.036 110.442,259.386 110.442,259.386 C111.844,260.438 113.946,259.737 114.647,257.985 C114.998,257.284 114.998,256.934 114.998,256.233 C115.348,256.233 115.348,256.233 115.698,256.233 C117.451,255.882 118.502,253.78 118.151,251.677 C117.801,250.976 117.801,250.276 117.451,249.925 C117.451,249.925 117.801,249.925 117.801,249.575 Z " fill="#ffffff" fill-opacity="1.00" />					<path d="M97.8271,261.489 L120.254,261.489 L120.254,248.524 L97.8271,248.524 L97.8271,261.489 Z " fill="#323232" fill-opacity="1.00" />				</g>				<path d="M87.665,186.149 L55.4267,340.333 L23.5387,186.149 L87.665,186.149 Z " fill="#ffffff" fill-opacity="1.00" />				<path d="M49.82,327.017 L51.5721,327.017 L51.5721,199.115 L49.82,199.115 L49.82,327.017 Z " fill="#e6e6e6" fill-opacity="1.00" />				<g>					<path d="M23.5387,186.149 L-6.59711,219.789 L28.0942,249.925 L3.21455,266.044 L55.4267,340.333 L23.5387,186.149 Z " fill="#1a1a1a" fill-opacity="1.00" />					<path d="M55.4267,340.333 L107.639,266.044 L82.7592,249.925 L117.45,219.789 L87.665,186.149 L55.4267,340.333 Z " fill="#1a1a1a" fill-opacity="1.00" />				</g>				<path d="M51.5721,388.69 L60.3325,388.69 L60.3325,333.675 L55.4267,338.23 L51.5721,334.376 L51.5721,388.69 Z " fill="#1a1a1a" fill-opacity="1.00" />				<path d="M35.4529,195.961 L76.1013,195.961 L76.1013,138.493 L35.4529,138.493 L35.4529,195.961 Z " fill="#e7b791" fill-opacity="1.00" />				<path d="M29.1454,214.183 L55.7771,186.149 L36.1538,172.483 L23.5387,186.149 L29.1454,214.183 Z " fill="#ffffff" fill-opacity="1.00" />				<path d="M87.665,186.149 L74.3492,171.081 L55.7771,186.149 L81.708,214.183 L87.665,186.149 Z " fill="#ffffff" fill-opacity="1.00" />				<path d="M55.7771,186.149 L81.708,214.183 L55.7771,200.166 L29.1454,214.183 L55.7771,186.149 Z " fill="#e6e6e6" fill-opacity="1.00" />				<g>					<g>						<path d="M59.9821,197.363 C58.5804,198.764 58.5804,201.568 59.9821,203.67 C64.5375,206.123 77.1526,215.234 79.6055,212.781 C83.1096,209.627 83.1096,191.406 79.6055,188.252 C77.1526,185.799 64.5375,194.91 59.9821,197.363 Z " fill="#212e36" fill-opacity="1.00" />						<path d="M51.2217,197.363 C46.6663,194.91 34.0513,185.799 31.5983,188.252 C28.0942,191.406 28.0942,209.627 31.5983,212.781 C34.0513,215.234 46.6663,206.123 51.2217,203.67 C52.6233,201.568 52.6233,198.764 51.2217,197.363 Z " fill="#212e36" fill-opacity="1.00" />					</g>					<path d="M52.2729,195.961 C50.8713,195.961 49.82,196.662 50.1704,198.064 L50.1704,202.619 C50.1704,203.67 51.2217,204.721 52.2729,204.721 L59.2813,204.721 C60.3325,204.721 61.3838,203.67 61.3838,202.619 L61.3838,198.064 C61.3838,197.012 60.3325,195.961 59.2813,195.961 L52.2729,195.961 Z " fill="#405059" fill-opacity="1.00" />				</g>				<path d="M14.7783,649.05 C31.9488,649.05 45.9654,642.042 45.9654,633.281 C45.9654,624.521 31.9488,617.513 14.7783,617.513 C-2.39211,617.513 -16.4088,624.521 -16.4088,633.281 C-16.4088,641.691 -2.39212,649.05 14.7783,649.05 Z " fill="#1a1a1a" fill-opacity="1.00" />				<path d="M96.7759,649.05 C113.946,649.05 127.963,642.042 127.963,633.281 C127.963,624.521 113.946,617.513 96.7759,617.513 C79.6055,617.513 65.5888,624.521 65.5888,633.281 C65.5888,641.691 79.6055,649.05 96.7759,649.05 Z " fill="#1a1a1a" fill-opacity="1.00" />				<path d="M54.764,174.645 C96.8896,174.645 131.33,142.056 131.33,102.109 C131.33,62.161 96.8896,29.5722 54.764,29.5722 C12.6384,29.5722 -21.8021,62.161 -21.8021,102.109 C-21.8021,142.056 12.6385,174.645 54.764,174.645 Z " fill="#ffd8b8" fill-opacity="1.00" />				<g>					<path d="M27.0429,106.254 C29.8463,106.254 32.2992,102.049 32.2992,97.1434 C32.2992,92.2376 29.8463,88.0326 27.0429,88.0326 C24.2396,88.0326 21.7867,92.2376 21.7867,97.1434 C22.1371,102.049 24.2396,106.254 27.0429,106.254 Z " fill="#666666" fill-opacity="1.00" />					<path d="M84.5113,106.254 C87.3146,106.254 89.7676,102.049 89.7676,97.1434 C89.7676,92.2376 87.3146,88.0326 84.5113,88.0326 C81.708,88.0326 79.2551,92.2376 79.2551,97.1434 C79.2551,102.049 81.708,106.254 84.5113,106.254 Z " fill="#666666" fill-opacity="1.00" />				</g>				<path d="M125.231,60.3107 C110.864,45.5932 101.243,32.1847 84.0729,29.7318 C38.8691,23.4242 -14.3943,47.603 -22.4539,90.7043 C-20.0009,87.901 -7.38592,113.481 -7.38592,109.977 C-6.33466,19.5697 85.2839,49.0974 125.231,60.3107 Z " fill="#3f2900" fill-opacity="1.00" />				<path d="M-15.7689,56.8207 C-1.40178,42.1032 10.4731,28.1312 27.6435,25.6783 C72.8473,19.3708 126.111,43.5495 134.17,86.6508 C131.717,83.8475 119.102,109.428 119.102,105.924 C118.051,15.5162 24.1786,45.6074 -15.7689,56.8207 Z " fill="#3d2700" fill-opacity="1.00" />				<path d="M86.9642,131.134 C73.298,133.587 40.3588,133.587 24.9404,131.134 C40.7092,150.056 74.3492,150.757 86.9642,131.134 Z " fill="#e7b791" fill-opacity="1.00" />				<path d="M-28.9241,103.317 C-28.3946,114.441 -25.6738,119.191 -18.4677,118.682 C-11.2616,118.173 -8.86681,114.682 -9.39633,103.558 C-9.92584,92.434 -12.505,84.8628 -19.7111,85.3714 C-26.8564,85.5349 -29.4536,92.1935 -28.9241,103.317 Z " fill="#ffd8b8" fill-opacity="1.00" />				<path d="M121.668,97.4794 C119.215,108.342 120.266,118.504 127.274,119.906 C134.283,121.308 134.983,115.351 137.436,104.488 C139.889,93.6249 137.436,86.2661 130.428,84.514 C123.42,82.7619 124.121,86.6165 121.668,97.4794 Z " fill="#ffd8b8" fill-opacity="1.00" />				<path d="M-68.2705,332.624 L-33.2288,317.556 L-54.6043,241.866 C-60.2109,221.541 -68.6209,223.994 -81.9368,215.234 C-99.1072,208.576 -110.671,214.533 -117.329,235.558 C-118.731,277.258 -97.0047,296.18 -68.2705,332.624 Z " fill="#ffedde" fill-opacity="1.00" />				<path d="M-113.124,268.147 C-102.261,294.428 -87.5435,314.052 -71.7747,332.974 L-32.8784,317.205 L-33.2288,316.504 L-54.6042,241.515 C-56.3563,234.857 -59.5101,228.199 -63.3647,222.242 C-86.1418,222.943 -108.568,266.395 -113.124,268.147 Z " fill="#f2f8fa" fill-opacity="1.00" />				<path d="M253.371,363.576 C237.487,360.115 223.207,363.748 221.477,371.69 C219.746,379.632 231.22,388.876 247.104,392.337 C262.988,395.798 277.268,392.166 278.998,384.224 C280.729,376.282 269.255,367.037 253.371,363.576 Z " fill="#cad3d7" fill-opacity="1.00" />				<path d="M234.898,393.914 C221.402,384.852 206.788,382.977 202.257,389.725 C197.727,396.473 204.995,409.289 218.491,418.351 C231.987,427.412 246.601,429.287 251.131,422.539 C255.662,415.791 248.394,402.975 234.898,393.914 Z " fill="#cad3d7" fill-opacity="1.00" />				<g>					<path d="M-47.5959,301.086 C-82.2872,336.128 -72.8259,348.743 -61.2622,363.811 C-49.348,378.879 -33.5792,391.844 -43.0405,419.877 C-53.2026,450.013 -38.8355,475.944 -10.8021,488.559 C9.17164,497.32 8.82122,507.482 9.52206,540.071 C9.87247,562.497 47.3671,569.856 68.3921,549.532 C80.6567,537.968 133.219,506.08 139.527,462.628 C143.381,435.997 120.604,384.135 147.586,397.1 C213.815,428.988 251.66,389.742 255.164,357.153 C258.669,324.564 248.156,304.59 230.986,296.881 C207.858,286.369 190.337,297.582 177.021,277.959 C155.996,247.122 137.424,241.515 109.391,253.429 C77.503,266.745 61.3838,262.54 38.6067,260.438 C15.4791,258.335 -12.9046,266.044 -47.5959,301.086 Z " fill="#f2f8fa" fill-opacity="1.00" />					<path d="M-51.8009,298.283 C-78.783,325.615 -67.2193,336.478 -53.9034,349.444 C-40.2372,363.46 -23.0667,376.776 -29.3742,400.254 C-36.0321,425.134 -20.2634,448.612 8.47081,461.928 C28.795,471.389 29.4958,479.098 32.6496,505.73 C34.7521,523.951 67.6913,553.036 114.998,510.636 C162.304,467.885 94.6734,383.434 146.886,395.348 C219.422,411.818 232.037,395.699 248.506,373.272 C264.976,351.196 230.635,300.035 215.217,300.736 C190.337,301.787 182.978,303.189 167.56,284.967 C143.381,256.233 118.502,248.874 90.118,268.848 C68.3921,284.266 48.0679,273.053 25.2908,269.549 C2.1633,266.044 -24.4684,270.95 -51.8009,298.283 Z " fill="#f2f8fa" fill-opacity="1.00" />					<path d="M-55.3051,298.283 C-87.193,330.521 -13.6054,348.743 -20.9642,387.99 C-24.8188,409.015 -7.99878,430.39 20.7354,443.706 C41.0596,453.167 42.4613,460.175 46.6663,482.252 C49.4696,497.32 90.8188,526.054 126.561,496.268 C162.304,466.483 112.194,385.186 154.244,395.699 C223.627,413.22 227.481,400.605 241.498,381.682 C255.164,362.409 217.67,316.855 201.551,316.855 C177.372,316.855 170.013,317.205 153.543,300.736 C127.262,274.454 102.383,266.395 77.1526,281.463 C57.8796,292.676 37.5554,281.463 15.1287,277.258 C-7.64836,273.053 -23.0667,266.044 -55.3051,298.283 Z " fill="#f2f8fa" fill-opacity="1.00" />					<path d="M-62.3134,299.684 C-75.6293,312.65 -59.5101,317.556 -43.0405,327.718 C-26.2205,338.23 -7.64837,351.546 -6.2467,365.563 C-4.84504,380.28 14.4279,398.152 43.5125,412.519 C63.8367,422.33 66.64,427.587 73.9988,442.655 C79.255,453.167 125.51,499.422 138.476,472.09 C151.441,444.407 98.8784,389.391 123.408,381.682 C163.706,369.067 180.175,422.681 218.02,405.51 C255.865,388.34 188.235,348.392 173.167,346.29 C151.091,343.136 144.433,342.435 126.211,328.769 C96.7759,306.342 72.2467,296.881 53.3242,303.539 C38.9571,308.445 18.6329,296.531 -3.09295,290.574 C-24.8188,284.616 -48.9976,286.719 -62.3134,299.684 Z " fill="#f2f8fa" fill-opacity="1.00" />					<path d="M-66.8689,300.385 C-74.2276,307.744 -56.3563,310.197 -38.1347,318.957 C-19.913,328.068 -0.640033,340.683 4.26581,351.196 C9.17164,361.708 30.5471,377.827 59.9821,392.895 C80.3063,403.408 84.8617,407.262 95.0238,418.826 C102.032,426.886 122.356,451.765 138.476,454.569 C147.236,455.97 124.809,396.049 137.424,386.938 C147.937,379.58 170.363,406.562 201.551,406.912 C220.123,406.912 166.158,369.067 152.492,365.563 C132.869,360.657 126.561,358.905 107.639,346.64 C76.4517,326.316 52.6233,315.103 38.2563,316.504 C27.0429,317.906 6.3683,305.992 -14.6567,298.984 C-36.0322,291.975 -59.5101,293.377 -66.8689,300.385 Z " fill="#f2f8fa" fill-opacity="1.00" />				</g>				<path d="M-70.6601,323.118 C-74.307,316.732 -80.1245,313.188 -83.6538,315.204 C-87.183,317.219 -87.0877,324.03 -83.4408,330.416 C-79.7939,336.803 -73.9764,340.346 -70.4471,338.331 C-66.9178,336.315 -67.0132,329.504 -70.6601,323.118 Z " fill="#ffd8b8" fill-opacity="1.00" />				<path d="M-72.8259,217.336 C-105.415,212.08 -107.868,241.515 -71.0738,247.122 C-32.528,252.729 35.1025,254.13 77.503,206.824 L69.093,196.662 C-5.54586,241.866 -13.9559,226.798 -72.8259,217.336 Z " fill="#ffd8b8" fill-opacity="1.00" />				<path d="M69.7938,186.149 C64.5375,195.961 65.9392,207.174 72.9475,210.679 C79.9559,214.884 93.6221,204.371 96.0751,197.012 C99.5792,185.448 83.8105,178.09 77.8534,184.047 C75.4005,181.243 72.2467,181.594 69.7938,186.149 Z " fill="#ffd8b8" fill-opacity="1.00" />				<path d="M157.254,393.676 C156.742,389.644 150.413,387.126 143.118,388.052 C135.823,388.978 130.323,392.997 130.835,397.029 C131.347,401.06 137.676,403.578 144.971,402.652 C152.266,401.726 157.765,397.707 157.254,393.676 Z " fill="#ffd8b8" fill-opacity="1.00" />				<path d="M20.557,28.879 L66.162,27.6526 L66.162,22.5838 C72.4556,22.5838 78.05,24.6277 80.8471,27.6526 L81.8261,27.6526 C84.6233,24.7912 90.2177,22.7473 96.5113,22.7473 L96.5113,28.879 C113.574,31.9039 131.892,53.9365 131.892,79.8595 L131.892,79.8595 L105.183,70.6559 C93.7141,70.6559 84.2037,65.0966 84.2037,58.3927 C84.2037,65.0966 74.6934,70.6559 63.225,70.6559 L-14.5404,70.6559 C-9.09345,51.798 5.57758,28.879 20.557,28.879 Z " fill="#3f2900" fill-opacity="1.00" />			</g>		</g>	</svg>