<svg xmlns="http://www.w3.org/2000/svg" width="700" height="250" viewBox="0 0 700 250"><title>Card-smarts_GRAPHIC-4</title><path d="M526.6,143.527c22.319,0,40.412-11.4,40.412-25.465S548.916,92.6,526.6,92.6s-40.412,11.4-40.412,25.465,18.093,25.465,40.412,25.465" style="fill:#f8f7f4"/><path d="M588.909,123.266c23.929,0,43.327-13.268,43.327-29.633S612.838,64,588.909,64s-43.327,13.268-43.327,29.633,19.4,29.633,43.327,29.633" style="fill:#f8f7f4"/><path d="M578.582,162.156c16.273,0,29.465-12.613,29.465-28.174s-13.192-28.176-29.465-28.176-29.465,12.616-29.465,28.176,13.192,28.174,29.465,28.174" style="fill:#f8f7f4"/><path d="M627.726,147.68c20.374,0,36.89-10.344,36.89-23.1s-16.516-23.1-36.89-23.1-36.89,10.344-36.89,23.1,16.516,23.1,36.89,23.1" style="fill:#f8f7f4"/><path d="M536.972,127.119c16.273,0,29.465-12.613,29.465-28.174s-13.192-28.176-29.465-28.176-29.465,12.616-29.465,28.176,13.192,28.174,29.465,28.174" style="fill:#f8f7f4"/><path d="M624.847,122.287c16.273,0,29.465-12.613,29.465-28.174S641.12,65.937,624.847,65.937s-29.465,12.616-29.465,28.176,13.192,28.174,29.465,28.174" style="fill:#f8f7f4"/><path d="M78.412,120.922c22.319,0,40.412-11.4,40.412-25.465S100.731,69.992,78.412,69.992,38,81.393,38,95.457s18.093,25.465,40.412,25.465" style="fill:#f8f7f4"/><path d="M140.724,100.661c23.929,0,43.327-13.268,43.327-29.633s-19.4-29.633-43.327-29.633S97.4,54.663,97.4,71.028s19.4,29.633,43.327,29.633" style="fill:#f8f7f4"/><path d="M130.4,139.551c16.273,0,29.465-12.613,29.465-28.174S146.671,83.2,130.4,83.2s-29.465,12.616-29.465,28.176,13.192,28.174,29.465,28.174" style="fill:#f8f7f4"/><path d="M179.542,125.075c20.374,0,36.89-10.344,36.89-23.1s-16.516-23.1-36.89-23.1-36.89,10.344-36.89,23.1,16.516,23.1,36.89,23.1" style="fill:#f8f7f4"/><path d="M88.788,104.512c16.273,0,29.465-12.613,29.465-28.174S105.061,48.162,88.788,48.162,59.323,60.778,59.323,76.338s13.192,28.174,29.465,28.174" style="fill:#f8f7f4"/><path d="M176.663,99.68c16.273,0,29.465-12.613,29.465-28.174S192.936,43.33,176.663,43.33,147.2,55.946,147.2,71.506,160.39,99.68,176.663,99.68" style="fill:#f8f7f4"/><path d="M501.2,155.261s130.584-47.082,138.725-48.71,16.282.651,19.865,1.628,15.67,0,21.167,1.954,7.816,8.792-3.582,17.91a154.909,154.909,0,0,1-39.078,23.121c-16.282,6.839-113,41.031-139.7,39.078s-26.052-5.211-27.354-21.167c18.887-8.141,29.959-13.814,29.959-13.814" style="fill:#e6e5d2"/><path d="M625.577,121.213a1.62,1.62,0,0,1-3.24,0v-1.971a1.62,1.62,0,0,1,3.24,0Z" style="fill:#adada1"/><path d="M618.579,123.584a1.62,1.62,0,0,1-3.24,0v-1.971a1.62,1.62,0,0,1,3.24,0Z" style="fill:#adada1"/><path d="M611.908,126.189a1.62,1.62,0,0,1-3.24,0v-1.971a1.62,1.62,0,0,1,3.24,0Z" style="fill:#adada1"/><path d="M605.053,128.795a1.62,1.62,0,0,1-3.24,0v-1.971a1.62,1.62,0,0,1,3.24,0Z" style="fill:#adada1"/><path d="M598.055,131.165a1.62,1.62,0,0,1-3.24,0v-1.971a1.62,1.62,0,0,1,3.24,0Z" style="fill:#adada1"/><path d="M591.384,133.536a1.62,1.62,0,0,1-3.24,0v-1.97a1.62,1.62,0,1,1,3.24,0Z" style="fill:#adada1"/><path d="M584.057,135.412a1.62,1.62,0,0,1-3.24,0v-1.971a1.62,1.62,0,0,1,3.24,0Z" style="fill:#adada1"/><path d="M577.059,137.782a1.62,1.62,0,0,1-3.24,0v-1.971a1.62,1.62,0,0,1,3.24,0Z" style="fill:#adada1"/><path d="M570.388,140.388a1.62,1.62,0,0,1-3.24,0v-1.971a1.62,1.62,0,0,1,3.24,0Z" style="fill:#adada1"/><path d="M563.533,142.993a1.62,1.62,0,0,1-3.24,0v-1.97a1.62,1.62,0,1,1,3.24,0Z" style="fill:#adada1"/><path d="M556.535,145.363a1.62,1.62,0,0,1-3.24,0v-1.97a1.62,1.62,0,1,1,3.24,0Z" style="fill:#adada1"/><path d="M549.864,147.5a1.62,1.62,0,0,1-3.24,0v-1.97a1.62,1.62,0,1,1,3.24,0Z" style="fill:#adada1"/><path d="M461.794,116.32s2.279-1.628,4.884,1.628,36.8,36.489,36.8,36.489l-32.245,14.637-12.374-46.892s-.74-3.27,0-3.908a12.386,12.386,0,0,1,2.931-1.954" style="fill:#adada1"/><path d="M586.516,148.885h-189.2s-13.8,2.469-3.722,7.021c7.927,3.583,147.983,20.007,175.663,14.472s29.308-16.282,17.259-21.493" style="fill:#c5c6b6"/><path d="M392.156,154.708s2.555-4.195,34.794-3.543S588.144,156.7,588.144,156.7s-14.329,12.049-28.656,14.328-166.681-9.293-167.332-16.321" style="fill:#adada1"/><path d="M485.24,177.867s11.4-6.88,2.279-6.533S429.88,169.4,429.88,169.4s-10.095,1.954,0,4.233,44.94,9.444,50.149,6.839Z" style="fill:#adada1"/><path d="M618.755,158.016l34.193,8.779s8.792,1.628-1.3,2.606-56.988,0-56.988,0Z" style="fill:#a2a298"/><path d="M473.191,181.449s36.146-1.3,67.409-9.444,112.673-36.146,121.791-42.985,17.532-19.057,21.44-17.1,2.012,7.684-3.2,13.22-8.472,11.048-24.753,18.538-56.337,24.424-75.224,29.633-69.037,17.259-82.063,17.259-26.377-.977-25.4-9.118" style="fill:#a2a298"/><path d="M513.4,163.957l-7.642,3.164s-1.628,5.907,0,9.63c8.189-1.032,10.42-4.352,10.42-4.352Z" style="fill:#adada1"/><path d="M505.756,176.75s.253,5.618,4.848,7.113,10.783,0,10.783,0L516.176,172.4Z" style="fill:#a2a298"/><path d="M559.488,171.029s-3.642,2.8-13.351,5.721c-12.892,3.874-25.076,7.63-28.657,6.979s-5.862-7.164-5.862-7.164L554.6,160.934Z" style="fill:#adada1"/><path d="M548.35,151.165s-28.266,5.862-34.128,11.886-3.907,11.886-2.6,13.514,30.331-8.012,30.331-8.012l12.654-7.619Z" style="fill:#c5c6b6"/><path d="M563.079,162.593a11.24,11.24,0,1,1-11.239-11.24,11.239,11.239,0,0,1,11.239,11.24" style="fill:#a2a298"/><path d="M536.277,153.444l-.189.315c-.124.2-.292.511-.51.9-.425.776-1.007,1.893-1.6,3.263a25.7,25.7,0,0,0-1.551,4.772,17.783,17.783,0,0,0-.361,2.744,13.564,13.564,0,0,0,.86,5.519,14.027,14.027,0,0,0,1.213,2.446,16,16,0,0,0,3.259,3.7,20.07,20.07,0,0,0,1.611,1.226c.5.341.952.626,1.335.846s.688.388.9.493.328.162.328.162-.127-.014-.363-.06-.583-.12-1.014-.252a14.5,14.5,0,0,1-3.431-1.53,13.932,13.932,0,0,1-4-3.642,13.053,13.053,0,0,1-1.528-2.709,13.171,13.171,0,0,1-.983-6.316,15.5,15.5,0,0,1,.565-3.024,19.432,19.432,0,0,1,2.2-4.873,20.368,20.368,0,0,1,2.253-2.977c.3-.334.556-.579.727-.746s.272-.248.272-.248" style="fill:#a2a298"/><path d="M513.516,163.832l-.127.247c-.085.158-.2.4-.346.7-.289.6-.684,1.462-1.085,2.5a21.263,21.263,0,0,0-1.051,3.589,14.4,14.4,0,0,0-.243,2.033,10.908,10.908,0,0,0,.1,2.067c.019.172.05.34.085.509l.024.127.012.064.006.031,0,.016c.012.046-.015-.053-.01-.04l0,.009.078.273c.05.183.1.366.15.547l.072.272.089.228a10.633,10.633,0,0,0,.827,1.79l.249.422c.081.141.185.263.273.4l.271.388.3.358c.1.117.189.242.291.35s.205.216.3.323c.192.223.408.405.6.6.4.375.8.694,1.155.972.18.141.357.256.515.379s.315.215.452.308.267.165.375.238l.284.17.241.137s-.1-.008-.278-.036a7.9,7.9,0,0,1-.773-.168c-.163-.049-.347-.1-.544-.164s-.407-.143-.629-.234a10.691,10.691,0,0,1-1.447-.732,8.9,8.9,0,0,1-.78-.52l-.4-.3c-.134-.1-.256-.223-.388-.338s-.261-.235-.392-.358l-.37-.4a5.528,5.528,0,0,1-.368-.421l-.341-.46a8.093,8.093,0,0,1-.627-1l-.15-.26c-.046-.091-.087-.189-.131-.284l-.25-.582-.122-.293-.085-.27-.165-.542-.081-.272-.017-.066,0-.019-.008-.038-.016-.077-.032-.152c-.044-.2-.085-.408-.11-.615a10.662,10.662,0,0,1-.059-2.459,11.882,11.882,0,0,1,.444-2.3,14.805,14.805,0,0,1,3.443-5.91c.231-.249.433-.427.566-.55s.212-.182.212-.182" style="fill:#a2a298"/><path d="M588.47,170.354l6.187-1.6v5.083l-8.141,2.917a6.766,6.766,0,0,1,1.954-6.4" style="fill:#adada1"/><path d="M633.462,156.1s-3.635-.674-12.1,1.918-26.7,10.733-26.7,10.733v5.083l31.588-3.479,6.187-1.6Z" style="fill:#c5c6b6"/><path d="M586.516,176.75s2.279,6.8,5.211,7.053a81.244,81.244,0,0,0,8.141,0l-5.211-9.97Z" style="fill:#a2a298"/><path d="M632.432,166.786l3.673,9.135s-2.37,1.353-9.861,2.952-26.377,4.929-26.377,4.929l-5.21-9.97Z" style="fill:#adada1"/><path d="M640.573,166.633c0,5.964-4.082,10.8-9.118,10.8s-9.118-4.835-9.118-10.8,4.083-10.8,9.118-10.8,9.118,4.835,9.118,10.8" style="fill:#a2a298"/><path d="M622.982,157.563s-.258.3-.688.844c-.217.269-.47.6-.76.986s-.6.823-.939,1.3-.679,1.015-1.027,1.585a19.914,19.914,0,0,0-1,1.832,14.864,14.864,0,0,0-.824,2.037,8.97,8.97,0,0,0-.42,2.165,6.252,6.252,0,0,0,.025,1.078l.036.253.051.29c.031.2.073.369.112.547a14.428,14.428,0,0,0,.646,2.085,20.136,20.136,0,0,0,.861,1.881c.3.589.635,1.123.943,1.618.628.983,1.222,1.765,1.648,2.308s.695.839.695.839a8.659,8.659,0,0,1-.878-.658c-.271-.223-.59-.5-.938-.849a15.77,15.77,0,0,1-1.116-1.209,15.236,15.236,0,0,1-1.161-1.577,14.145,14.145,0,0,1-1.057-1.932,12.542,12.542,0,0,1-.776-2.249c-.046-.2-.1-.411-.128-.6l-.054-.289c-.021-.127-.031-.219-.046-.33a7.365,7.365,0,0,1-.021-1.286,9.237,9.237,0,0,1,.534-2.44,13.724,13.724,0,0,1,.993-2.148,20.256,20.256,0,0,1,1.193-1.829c.408-.559.828-1.058,1.219-1.512s.78-.844,1.121-1.189.66-.627.917-.861c.522-.461.842-.7.842-.7" style="fill:#a2a298"/><path d="M594.657,168.749a.719.719,0,0,0-.052.178,3.006,3.006,0,0,0-.034.511,7.532,7.532,0,0,0,.059.793c.031.3.084.647.143,1.02s.132.776.212,1.2l.252,1.333c.024.118.048.237.072.357l.081.328c.06.225.128.457.2.688.147.463.323.929.511,1.393.383.925.821,1.839,1.256,2.688s.867,1.635,1.24,2.309.693,1.236.917,1.631l.352.622s-.194-.176-.511-.5c-.155-.165-.346-.367-.557-.6s-.44-.512-.69-.814a25.275,25.275,0,0,1-1.568-2.168,20.561,20.561,0,0,1-1.487-2.71,14.659,14.659,0,0,1-.576-1.485c-.086-.251-.152-.505-.219-.761-.031-.132-.061-.262-.091-.393s-.045-.241-.067-.36c-.04-.268-.066-.491-.1-.732s-.044-.468-.058-.693a12.037,12.037,0,0,1-.017-1.283c.005-.2.027-.392.04-.573s.045-.355.074-.517a5.167,5.167,0,0,1,.22-.826,2.09,2.09,0,0,1,.256-.492.524.524,0,0,1,.135-.141" style="fill:#a2a298"/><path d="M636.061,124.951a2.6,2.6,0,1,1-5.2,0v-9.735a2.6,2.6,0,1,1,5.2,0Z" style="fill:#c5c6b6"/><path d="M636.061,124.951a2.6,2.6,0,1,1-5.2,0v-9.735a2.6,2.6,0,1,1,5.2,0Z" style="fill:none;stroke:#a2a298;stroke-miterlimit:10;stroke-width:0.268999993801117px"/><path d="M643.83,109.156s12.7-.326,14-1.628l5.643,1.077-15.413,7.307-7.49-3.334Z" style="fill:#a2a298"/><path d="M477.685,137.031a6.448,6.448,0,1,1-6.448-6.448,6.448,6.448,0,0,1,6.448,6.448" style="fill:#bf7c67"/><path d="M475.453,137.031a4.215,4.215,0,1,1-4.215-4.215,4.215,4.215,0,0,1,4.215,4.215" style="fill:#e6e5d2"/><rect y="224" width="700" height="26" style="fill:#eae6dc"/><path d="M142.89,149.378s11.56-10.15,16.353-17.763,17.2-15.507,21.146-26.221c0,0-42.856,1.128-37.5,43.984" style="fill:#d8aa7d"/><path d="M120.287,144.447a66.264,66.264,0,0,0,28.182-26.875c10.869-19.377,25.064-33.423,44.964-39.972s24.8-18.958,22.585-26.347-41.38,13.576-41.38,13.576S140.276,76.874,132.89,90.6s-37.206,37.068-45.114,79.721Z" style="fill:#d8aa7d"/><path d="M133.75,107.375a66.255,66.255,0,0,0,34.721-17.636c15.982-15.43,33.91-21.814,54.559-25.352,21.719-3.721,29.21-11.021,29.21-18.736s-43.538,1.1-43.538,1.1-36.375,1.652-47.4,12.675-46.3,24.8-66.133,63.379Z" style="fill:#e4bc89"/><path d="M153.59,210.433c49.694-11.616,76.845-15.949,91.3-16.8,12.548-.736,19.873-6.518,13.948-13.924-8.309-10.385-28.784-9.276-50.149-6.9a135.643,135.643,0,0,1-38.873-1.483c-11.641-2.27-21.651-5.984-24.036-21.069-1.022-6.463,1.187-19.585,10.386-26.41,8.422-6.249,29.377-18.695,35.9-21.366s19.509-5.788,24.036-5.638c24.047.8,42.74,2.024,47.151-9,1.652-6.061-33.619-6.828-38.579-9.032,0,0-24.8-4.917-47.4,1.146s-35.821,9.3-46.844,12.606-26.2,6.686-49.6,47.878C72.4,155.3,6,250,6,250H92.946s25.579-31.371,60.644-39.567" style="fill:#e4bc89"/><path d="M347.571,179.284a6.166,6.166,0,0,1-6.717,5.555L228.835,174.3a6.171,6.171,0,0,1-5.573-6.71l6.21-65.995a6.166,6.166,0,0,1,6.726-5.551l112.019,10.54a6.161,6.161,0,0,1,5.563,6.707Z" style="fill:#84bb91"/><path d="M347.571,179.284a6.166,6.166,0,0,1-6.717,5.555L228.835,174.3c-3.4-.32,125.264-64.4,124.945-61.009Z" style="fill:#6d9e78"/><rect x="241.36" y="147.237" width="6.776" height="19.828" transform="translate(65.355 386.096) rotate(-84.623)" style="fill:#fff"/><rect x="269.248" y="149.855" width="6.777" height="19.833" transform="translate(88.053 416.26) rotate(-84.63)" style="fill:#fff"/><rect x="297.132" y="152.479" width="6.778" height="19.838" transform="translate(110.676 446.379) rotate(-84.623)" style="fill:#fff"/><rect x="325.02" y="155.103" width="6.774" height="19.833" transform="translate(133.317 476.504) rotate(-84.619)" style="fill:#fff"/><path d="M255.554,146.533a3.038,3.038,0,0,1-3.316,2.743l-13.682-1.289a3.037,3.037,0,0,1-2.743-3.312l.836-8.866a3.034,3.034,0,0,1,3.31-2.737l13.682,1.287a3.039,3.039,0,0,1,2.747,3.307Z" style="fill:#fff"/><polygon points="354.728 105.465 350.336 82.724 340.459 103.686 317.502 100.824 334.392 116.662 324.498 137.747 344.877 126.506 361.834 142.403 357.422 119.535 377.71 108.331 354.728 105.465" style="fill:#dac966"/><polygon points="354.728 105.465 334.392 116.662 324.498 137.747 344.877 126.506 361.834 142.403 357.422 119.535 377.71 108.331 354.728 105.465" style="fill:#cbac26"/><path d="M153.59,210.433C118.525,218.629,92.946,250,92.946,250H6s66.4-94.7,74.842-109.558c23.4-41.192,38.579-44.571,49.6-47.878s24.249-6.543,46.844-12.606,33.213-2.708,47.4-1.146c5.4.594,40.231,2.971,38.579,9.032-4.411,11.024-23.1,9.8-47.151,9-4.527-.15-17.507,2.968-24.036,5.638s-27.483,15.117-35.9,21.366c-9.2,6.825-11.408,19.947-10.386,26.41,2.385,15.085,12.4,18.8,24.036,21.069a135.643,135.643,0,0,0,38.873,1.483c4.941-.549,9.834-.923,14.54-1.046a9.382,9.382,0,0,1,3.266,1.361c1.375,1,9.745,1.612,16.5,1.875,6.417.25,8.586.849,9.667,1.25,4.833,1.792,6.176,3.462,6.176,3.462,5.925,7.406-1.4,13.188-13.948,13.924-14.46.848-41.611,5.181-91.3,16.8" style="fill:#e4bc89"/><path d="M242.782,80.725a81.968,81.968,0,0,1,12.343,1.837c4.773,1.244,6.494,2.036,6.969,2.375s.063.531-1.094.844a7.794,7.794,0,0,1-2.963.561c-.811-.063-10.309-1.727-12.332-2.3A4.687,4.687,0,0,1,242.782,80.725Z" style="fill:#e8cbaf"/><path d="M261.768,84.743a2.907,2.907,0,0,1,.326.195c.474.339.063.531-1.094.844a7.794,7.794,0,0,1-2.963.561c-.121-.009-.436-.055-.891-.127a13.205,13.205,0,0,0,2.948-.591C261.531,85.094,261.768,84.743,261.768,84.743Z" style="fill:#ead3c1"/><path d="M244.911,83.706a5.011,5.011,0,0,1-2.129-2.981s.882.061,2.25.2a9.649,9.649,0,0,1,.124,1.515A7.194,7.194,0,0,1,244.911,83.706Z" style="fill:#ead3c1"/><path d="M233.589,194.478a14.174,14.174,0,0,1-.339-2.978c0-1.583,1.5-2.417,4.667-2.667s12.833-1.083,14.75-1.25a3.3,3.3,0,0,1,3.417,1.25c.917,1,1.25,1.167,1.833,1.25s-.083.75-1.833,1.667S249.261,194.705,233.589,194.478Z" style="fill:#e8cbaf"/><path d="M257.728,190.731c.447-.364.521-.6.188-.648-.583-.083-.917-.25-1.833-1.25a3.3,3.3,0,0,0-3.417-1.25l-2.824.244s3.438-.108,4.157.3,1.381,1.314,2.156,1.875A3.71,3.71,0,0,0,257.728,190.731Z" style="fill:#ead3c1"/><path d="M235.054,194.493q-.717,0-1.465-.015a14.174,14.174,0,0,1-.339-2.978,1.933,1.933,0,0,1,.86-1.65,7.736,7.736,0,0,1,.783,2.283C235.042,193.458,235.054,194.493,235.054,194.493Z" style="fill:#ead3c1"/><path d="M231.624,43.181a5.092,5.092,0,0,0,1.688,2.319c1.188.813,9.813.313,13.5,0s4.438-1.187,4.813-1.75-.563-1.437-6.875-1.687A64.487,64.487,0,0,0,231.624,43.181Z" style="fill:#e8cbaf"/><path d="M251,42.9c.7.291.8.6.629.851-.375.563-1.125,1.438-4.813,1.75a13.358,13.358,0,0,0,3.219-1.094C251.219,43.594,251,42.9,251,42.9Z" style="fill:#ead3c1"/><path d="M232.843,42.962c-.772.129-1.219.219-1.219.219a5.092,5.092,0,0,0,1.688,2.319,2.138,2.138,0,0,0,.77.246s-.3-.84-.676-1.684A6.969,6.969,0,0,0,232.843,42.962Z" style="fill:#ead3c1"/></svg>