<?xml version="1.0" encoding="utf-8"?>
<!-- Generator: Adobe Illustrator 22.0.0, SVG Export Plug-In . SVG Version: 6.00 Build 0)  -->
<svg version="1.1" id="Capa_1" xmlns="http://www.w3.org/2000/svg" xmlns:xlink="http://www.w3.org/1999/xlink" x="0px" y="0px"
	 viewBox="0 0 191.4 191.4" style="enable-background:new 0 0 191.4 191.4;" xml:space="preserve">
<style type="text/css">
	.st0{fill:#E6E6E6;}
	.st1{fill:#D9E0E2;}
	.st2{fill:#FFF4C7;}
	.st3{fill:#945300;}
	.st4{fill:#FFFFFF;}
	.st5{fill:#E7B791;}
	.st6{fill:#FFD8B8;}
	.st7{fill:#666666;}
	.st8{fill:#1A1A1A;}
	.st9{fill:#323232;}
	.st10{fill:#CAD3D7;}
	.st11{fill:#F2F8FA;}
	.st12{fill:#212E36;}
	.st13{fill:#405059;}
	.st14{fill:#3F3500;}
	.st15{fill:#FFEDDE;}
</style>
<g>
	<g>
		<g>
			<circle class="st0" cx="111.5" cy="70.9" r="0.6"/>
			<circle class="st0" cx="111.5" cy="78.3" r="0.6"/>
			<circle class="st0" cx="111.5" cy="85.7" r="0.6"/>
			<circle class="st0" cx="111.5" cy="93.2" r="0.6"/>
		</g>
		<path class="st1" d="M50.5,15.1c22.3-2.1,44.2,34.1,50.2,82c-10.4,13.7-24.3,22.6-40.3,24.1c-15.9,1.5-31.3-4.6-44-16.1
			C13.4,56.8,28.2,17.2,50.5,15.1z"/>
		<ellipse transform="matrix(0.9481 -0.318 0.318 0.9481 -8.8167 18.7505)" class="st2" cx="53" cy="36.4" rx="19.5" ry="10.9"/>
		<ellipse transform="matrix(0.9481 -0.318 0.318 0.9481 -7.2031 17.8531)" class="st3" cx="51.1" cy="31" rx="16.6" ry="12.5"/>
		<g>
			<path class="st4" d="M39.9,32.7c0,0,0,0.1-0.1,0.1c0.1,0.1,0.2,0.2,0.3,0.3c0.2,0.4,0.1,0.9-0.3,1.1c0,0-0.1,0-0.1,0.1
				c0,0.1,0,0.3,0,0.4c-0.1,0.4-0.5,0.7-1,0.6c0,0-0.1,0-0.1,0c-0.1,0.1-0.1,0.2-0.2,0.3c-0.4,0.3-0.9,0.2-1.2-0.1
				c0,0-0.1-0.1-0.1-0.1c-0.1,0.1-0.2,0.1-0.4,0.1c-0.5,0-0.8-0.4-0.8-0.8c0-0.1,0-0.1,0-0.1c-0.1,0-0.2-0.1-0.3-0.2
				c-0.3-0.3-0.4-0.8-0.1-1.2c0,0,0.1-0.1,0.1-0.1c-0.1-0.1-0.1-0.2-0.1-0.4c-0.1-0.4,0.2-0.9,0.7-0.9c0,0,0.1,0,0.1,0
				c0-0.1,0-0.3,0.1-0.4c0.2-0.4,0.7-0.5,1.1-0.3c0,0,0.1,0.1,0.1,0.1c0.1-0.1,0.2-0.2,0.3-0.2c0.4-0.1,0.9,0.1,1,0.5
				c0,0,0,0.1,0,0.1c0.1,0,0.3,0,0.4,0.1C39.9,31.8,40.1,32.2,39.9,32.7z"/>
			<path class="st4" d="M43.8,28.5c0,0,0,0.1-0.1,0.1c0.1,0.1,0.2,0.2,0.3,0.3c0.2,0.4,0.1,0.9-0.3,1.1c0,0-0.1,0-0.1,0.1
				c0,0.1,0,0.3,0,0.4c-0.1,0.4-0.5,0.7-1,0.6c-0.1,0-0.1,0-0.1,0c-0.1,0.1-0.1,0.2-0.2,0.3c-0.4,0.3-0.9,0.2-1.2-0.1
				c0,0-0.1-0.1-0.1-0.1c-0.1,0.1-0.2,0.1-0.4,0.1c-0.5,0-0.8-0.4-0.8-0.8c0-0.1,0-0.1,0-0.1c-0.1,0-0.2-0.1-0.3-0.2
				c-0.3-0.3-0.4-0.8-0.1-1.2c0,0,0.1-0.1,0.1-0.1c-0.1-0.1-0.1-0.2-0.1-0.4c-0.1-0.4,0.2-0.9,0.7-0.9c0,0,0.1,0,0.1,0
				c0-0.1,0-0.3,0.1-0.4c0.2-0.4,0.7-0.5,1.1-0.3c0,0,0.1,0.1,0.1,0.1c0.1-0.1,0.2-0.2,0.3-0.2c0.4-0.1,0.9,0.1,1,0.5
				c0,0,0,0.1,0,0.1c0.1,0,0.3,0,0.4,0.1C43.7,27.6,43.9,28.1,43.8,28.5z"/>
			<path class="st4" d="M48.6,25.7c0,0,0,0.1-0.1,0.1c0.1,0.1,0.2,0.2,0.3,0.3c0.2,0.4,0.1,0.9-0.3,1.1c0,0-0.1,0-0.1,0.1
				c0,0.1,0,0.3,0,0.4c-0.1,0.4-0.5,0.7-1,0.6c0,0-0.1,0-0.1,0c-0.1,0.1-0.1,0.2-0.2,0.3c-0.4,0.3-0.9,0.2-1.2-0.1
				c0,0-0.1-0.1-0.1-0.1c-0.1,0.1-0.2,0.1-0.4,0.1c-0.5,0-0.8-0.4-0.8-0.8c0,0,0-0.1,0-0.1c-0.1,0-0.2-0.1-0.3-0.2
				c-0.3-0.3-0.4-0.8-0.1-1.2c0,0,0.1-0.1,0.1-0.1c-0.1-0.1-0.1-0.2-0.1-0.4c-0.1-0.4,0.2-0.9,0.7-0.9c0,0,0.1,0,0.1,0
				c0-0.1,0-0.3,0.1-0.4c0.2-0.4,0.7-0.5,1.1-0.3c0,0,0.1,0.1,0.1,0.1c0.1-0.1,0.2-0.2,0.3-0.2c0.4-0.1,0.9,0.1,1,0.5
				c0,0,0,0.1,0,0.1c0.1,0,0.3,0,0.4,0.1C48.6,24.8,48.8,25.3,48.6,25.7z"/>
			<path class="st4" d="M60.7,25.7c0,0,0.1,0,0.1,0.1c0,0.1-0.1,0.2,0,0.4c0.1,0.4,0.5,0.8,0.9,0.7c0,0,0.1,0,0.1,0
				c0,0.1,0.1,0.2,0.2,0.3c0.3,0.3,0.9,0.3,1.2-0.1c0,0,0.1-0.1,0.1-0.1c0.1,0.1,0.2,0.1,0.4,0.1c0.5,0,0.8-0.3,0.8-0.8
				c0,0,0-0.1,0-0.1c0.1,0,0.2-0.1,0.3-0.2c0.4-0.3,0.4-0.8,0.1-1.2c0,0-0.1-0.1-0.1-0.1c0.1-0.1,0.1-0.2,0.2-0.4
				c0.1-0.4-0.2-0.9-0.6-1c-0.1,0-0.1,0-0.1,0c0-0.1,0-0.3-0.1-0.4c-0.2-0.4-0.7-0.5-1.1-0.3c0,0-0.1,0.1-0.1,0.1
				c-0.1-0.1-0.2-0.2-0.3-0.2c-0.4-0.2-0.9,0-1.1,0.5c0,0,0,0.1,0,0.1c-0.1,0-0.3,0-0.4,0c-0.4,0.1-0.7,0.6-0.5,1c0,0,0,0.1,0.1,0.1
				c-0.1,0.1-0.2,0.2-0.3,0.3C60.2,24.9,60.3,25.4,60.7,25.7z"/>
			<path class="st4" d="M55.2,24.7c0,0,0.1,0,0.1,0.1c0,0.1-0.1,0.2,0,0.4c0.1,0.4,0.5,0.8,0.9,0.7c0,0,0.1,0,0.1,0
				c0,0.1,0.1,0.2,0.2,0.3c0.3,0.3,0.9,0.3,1.2-0.1c0,0,0.1-0.1,0.1-0.1c0.1,0.1,0.2,0.1,0.4,0.1c0.5,0,0.8-0.3,0.8-0.8
				c0,0,0-0.1,0-0.1c0.1,0,0.2-0.1,0.3-0.2c0.4-0.3,0.4-0.8,0.1-1.2c0,0-0.1-0.1-0.1-0.1c0.1-0.1,0.1-0.2,0.2-0.3
				c0.1-0.4-0.2-0.9-0.6-1c0,0-0.1,0-0.1,0c0-0.1,0-0.3-0.1-0.4c-0.2-0.4-0.7-0.5-1.1-0.3c0,0-0.1,0.1-0.1,0.1
				c-0.1-0.1-0.2-0.2-0.3-0.2c-0.4-0.2-0.9,0-1.1,0.5c0,0,0,0.1,0,0.1c-0.1,0-0.3,0-0.4,0c-0.4,0.1-0.7,0.6-0.5,1c0,0,0,0.1,0.1,0.1
				c-0.1,0.1-0.2,0.2-0.3,0.3C54.7,24,54.8,24.5,55.2,24.7z"/>
			<path class="st4" d="M49.6,25.4c0,0,0.1,0,0.1,0.1c0,0.1-0.1,0.3,0,0.4c0.1,0.4,0.5,0.8,0.9,0.7c0,0,0.1,0,0.1,0
				c0,0.1,0.1,0.2,0.2,0.3c0.3,0.3,0.9,0.3,1.2-0.1c0,0,0.1-0.1,0.1-0.1c0.1,0.1,0.2,0.1,0.4,0.1c0.5,0,0.8-0.3,0.8-0.8
				c0,0,0-0.1,0-0.1c0.1,0,0.2-0.1,0.3-0.2c0.4-0.3,0.4-0.8,0.1-1.2c0,0-0.1-0.1-0.1-0.1c0.1-0.1,0.1-0.2,0.2-0.4
				c0.1-0.4-0.2-0.9-0.6-1c-0.1,0-0.1,0-0.1,0c0-0.1,0-0.3-0.1-0.4c-0.2-0.4-0.7-0.5-1.1-0.3c0,0-0.1,0.1-0.1,0.1
				c-0.1-0.1-0.2-0.2-0.3-0.2c-0.4-0.2-0.9,0-1.1,0.5c0,0,0,0.1,0,0.1c-0.1,0-0.3,0-0.4,0c-0.4,0.1-0.7,0.6-0.5,1c0,0,0,0.1,0.1,0.1
				c-0.1,0.1-0.2,0.2-0.3,0.3C49.1,24.6,49.2,25.1,49.6,25.4z"/>
		</g>
		
			<rect x="58.7" y="56.1" transform="matrix(0.9281 -0.3724 0.3724 0.9281 -19.3238 28.6449)" class="st5" width="11.6" height="16.4"/>
		<ellipse transform="matrix(0.9481 -0.318 0.318 0.9481 -12.2168 20.498)" class="st6" cx="56.7" cy="47.7" rx="25.4" ry="19.6"/>
		<path class="st3" d="M31.8,50.6c12.5-22.3,36.4-22,46.6-15.4C67.5,14.8,30.2,22.8,31.8,50.6z"/>
		<g>
			
				<ellipse transform="matrix(0.9481 -0.3181 0.3181 0.9481 -10.8983 22.6178)" class="st7" cx="63.8" cy="44.7" rx="1.4" ry="2.5"/>
			<ellipse transform="matrix(0.948 -0.3182 0.3182 0.948 -13.2239 18.23)" class="st7" cx="49.2" cy="49.6" rx="1.4" ry="2.5"/>
		</g>
		<path class="st5" d="M67.4,51.8c-2.5,3.9-11.5,6.8-16.8,5.6C56.7,61.2,65.8,58.4,67.4,51.8z"/>
		<ellipse transform="matrix(0.8518 -0.5239 0.5239 0.8518 -24.3642 25.3525)" class="st6" cx="32.6" cy="55.7" rx="3.7" ry="5.8"/>
		<path class="st3" d="M45.8,77.9c-4.8-1.7-7-6.8-4.6-10.3c2.4-3.5,2.6-6.2-0.6-9.3c-3.2-3.1-3.8-5.7-0.6-8.4
			c3.3-2.7,4.1-4.1,3.1-8.6c-1-4.5,3.8-6.7,8.8-8.1c-6.4,0.6-12.1,1.5-14.4,5.3c-2.3,3.8-5,3.2-5.6,8.3c-0.6,5.1,1.9,9.2,5.1,12.3
			c3.2,3.1,4.1,4.8,1.8,8.3C36.5,71,38.2,77.4,45.8,77.9z"/>
		
			<ellipse transform="matrix(0.9954 -9.589913e-02 9.589913e-02 0.9954 -3.4495 7.9331)" class="st6" cx="80.8" cy="39.9" rx="3.7" ry="5.8"/>
		<path class="st3" d="M83.8,65.2c2.8-4.3,1.5-9.6-2.5-11s-5.9-3.4-5.2-7.8c0.7-4.4-0.4-6.9-4.6-7c-4.2-0.2-5.8-0.8-7.7-5
			c-1.9-4.2-7.1-3-11.9-1.2c5.5-3.4,10.6-6.1,14.7-4.4s5.9-0.5,9.5,3.3c3.6,3.7,4,8.5,3.3,12.9c-0.7,4.4-0.4,6.3,3.6,7.7
			C87.1,54,89.6,60.2,83.8,65.2z"/>
		<path class="st8" d="M89.7,64.3c-7,10.4-6.5,14.1-17.8,27.5l2.5,3.6c12.3-8.8,11-9.8,18.8-15.2C97.4,77.3,93.8,66.4,89.7,64.3z"/>
		<g>
			<path class="st9" d="M114.4,186.9c-1.1-24.1-2.2-48.2-3.4-72.3c5.2,0,10.4,0,15.6,0c-1.1,24.1-2.2,48.2-3.2,72.3
				C120.4,186.9,117.4,186.9,114.4,186.9z"/>
			<path class="st9" d="M99.8,186.9c-1.1-24.1-2.2-48.2-3.4-72.3c5.2,0,10.4,0,15.6,0c-1.1,24.1-2.2,48.2-3.2,72.3
				C105.8,186.9,102.8,186.9,99.8,186.9z"/>
		</g>
		<rect x="95.1" y="115.5" class="st8" width="32.6" height="3.4"/>
		<g>
			<path class="st6" d="M74.7,67.4c12.1-2,29.2-7.8,41.8-16.5l2.3,3.5C108.1,64,90.1,73.8,81,76.5C70,79.6,62.4,69.4,74.7,67.4z"/>
			<path class="st6" d="M116,46.8c1.1-1,2-0.8,2.4,0.2c1.5-1.7,3.9-1.8,4.7-0.9c1.6,1.7,0.9,4.8-1.4,7c-2.3,2.1-5.5,2.4-7.1,0.7
				C113,52,113.7,48.9,116,46.8z"/>
		</g>
		<g>
			<path class="st10" d="M137.1,68.9c0.9,1.8,1.8,2.9,2.6,3.1l0,0c0.6,0.2,1.4-0.2,2.5-1.2c2.5-2.5,4.7-2.2,6.6-0.7
				c1.4,1.1,2.4,2.9,3.1,4.4c0.2,0.3,0.4,0.4,0.7,0.3c0.9-0.2,2.1-1.1,3.5-2.2l2.5,2.9c-1.7,1.5-3.4,2.6-5,3c-2.2,0.6-4,0-5.1-2.3
				c-0.6-1.1-1.3-2.5-2.1-3.1c-0.3-0.3-0.8-0.2-1.5,0.4c-2.2,2.1-4.3,2.8-6.3,2.1v0c-1.9-0.6-3.4-2.3-4.8-5.1L137.1,68.9z"/>
			<path class="st10" d="M138.4,63.3c1.7,1.2,2.9,1.7,3.8,1.5c0.6-0.1,1.1-0.8,1.6-2.3c1.1-3.4,3.1-4.1,5.5-3.7
				c1.8,0.3,3.5,1.5,4.8,2.4c0.3,0.2,0.5,0.2,0.8-0.1c0.7-0.7,1.4-2,2-3.6l3.6,1.4c-0.8,2.1-1.8,3.9-3,5c-1.6,1.5-3.5,1.9-5.6,0.4
				c-1-0.7-2.3-1.6-3.3-1.8c-0.4-0.1-0.8,0.2-1.1,1.1c-0.9,2.9-2.4,4.5-4.6,4.9c-1.9,0.4-4.1-0.4-6.6-2.2L138.4,63.3z"/>
			<path class="st11" d="M130.6,51c0.2,0.2,0.3,0.5,0.5,0.7c0.7-0.3,1.4-0.5,2.2-0.4c2.6,0.1,4.6,2.3,4.5,5c0,0.3-0.1,0.6-0.1,0.9
				c0.7,0.2,1.4,0.6,2,1.1c1.9,1.8,2.1,4.8,0.3,6.7c-0.2,0.2-0.4,0.4-0.6,0.6c0.4,0.6,0.7,1.3,0.8,2.1c0.3,2.6-1.5,5-4.1,5.3
				c-0.3,0-0.6,0-0.9,0c-0.1,0.7-0.3,1.5-0.7,2.1c-1.4,2.2-4.4,2.9-6.6,1.4c-0.2-0.2-0.5-0.3-0.7-0.5c-0.5,0.5-1.2,0.9-1.9,1.1
				c-2.5,0.8-5.2-0.6-5.9-3.1c-0.1-0.3-0.1-0.6-0.2-0.8c-0.7,0.1-1.5-0.1-2.2-0.4c-2.4-1-3.6-3.8-2.6-6.2c0.1-0.3,0.2-0.5,0.4-0.8
				c-0.6-0.4-1.1-1-1.5-1.7c-1.2-2.3-0.3-5.2,2-6.4c0.3-0.1,0.5-0.2,0.8-0.3c-0.2-0.7-0.2-1.5,0-2.2c0.6-2.6,3.1-4.2,5.7-3.6
				c0.3,0.1,0.6,0.2,0.8,0.3c0.3-0.7,0.8-1.3,1.4-1.7C126,48.6,129,49,130.6,51z"/>
		</g>
		<path class="st9" d="M127.7,117.1l5.7-52.2l-12.7-5.6h-18.3c-4.2,1.9-10.1,3.4-12.7,5.6l5.5,52.2
			C95.1,117.1,127.7,117.1,127.7,117.1z"/>
		<g>
			<path class="st4" d="M129.3,77.4c0,0.1-0.1,0.1-0.1,0.1c0.1,0.1,0.1,0.3,0.2,0.5c0.1,0.6-0.2,1.2-0.7,1.3c-0.1,0-0.1,0-0.2,0
				c0,0.2,0,0.3-0.1,0.5c-0.2,0.5-0.8,0.7-1.2,0.4c0,0-0.1-0.1-0.1-0.1c-0.1,0.1-0.2,0.2-0.3,0.3c-0.5,0.2-1-0.1-1.1-0.7
				c0-0.1,0-0.1,0-0.2c-0.1,0-0.3,0-0.4-0.1c-0.5-0.2-0.7-0.8-0.5-1.4c0-0.1,0-0.1,0.1-0.2c-0.1-0.1-0.2-0.2-0.3-0.4
				c-0.2-0.5-0.1-1.2,0.3-1.5c0,0,0.1-0.1,0.1-0.1c0-0.2-0.1-0.3,0-0.5c0.1-0.6,0.5-1,1-0.9c0.1,0,0.1,0,0.2,0.1
				c0.1-0.2,0.1-0.3,0.2-0.4c0.4-0.4,0.9-0.3,1.3,0.1c0,0.1,0.1,0.1,0.1,0.2c0.1-0.1,0.3-0.1,0.4-0.1c0.5,0,0.9,0.5,0.9,1.1
				c0,0.1,0,0.1,0,0.2c0.1,0,0.3,0.1,0.4,0.2C129.6,76.2,129.6,76.9,129.3,77.4z"/>
			<rect x="123.6" y="77.1" class="st9" width="6.4" height="3.7"/>
		</g>
		<polygon class="st4" points="102.4,59.3 111.5,103.3 120.7,59.3 		"/>
		<rect x="109.9" y="63" class="st0" width="0.5" height="36.5"/>
		<g>
			<polygon class="st8" points="102.4,59.3 93.8,68.9 103.7,77.5 96.6,82.1 111.5,103.3 			"/>
			<polygon class="st8" points="120.7,59.3 129.2,68.9 119.3,77.5 126.4,82.1 111.5,103.3 			"/>
		</g>
		<polygon class="st8" points="110.4,117.1 112.9,117.1 112.9,101.4 111.5,102.7 110.4,101.6 		"/>
		<rect x="105.8" y="45.7" class="st5" width="11.6" height="16.4"/>
		<polygon class="st4" points="102.4,59.3 106,55.4 111.6,59.3 104,67.3 		"/>
		<polygon class="st4" points="120.7,59.3 116.9,55 111.6,59.3 119,67.3 		"/>
		<polygon class="st0" points="104,67.3 111.6,63.3 119,67.3 111.6,59.3 		"/>
		<g>
			<g>
				<path class="st12" d="M112.8,62.5c1.3-0.7,4.9-3.3,5.6-2.6c1,0.9,1,6.1,0,7c-0.7,0.7-4.3-1.9-5.6-2.6
					C112.4,63.7,112.4,62.9,112.8,62.5z"/>
				<path class="st12" d="M110.3,62.5c-1.3-0.7-4.9-3.3-5.6-2.6c-1,0.9-1,6.1,0,7c0.7,0.7,4.3-1.9,5.6-2.6
					C110.7,63.7,110.7,62.9,110.3,62.5z"/>
			</g>
			<path class="st13" d="M110.6,62.1h2c0.3,0,0.6,0.3,0.6,0.6V64c0,0.3-0.3,0.6-0.6,0.6h-2c-0.3,0-0.6-0.3-0.6-0.6v-1.3
				C109.9,62.3,110.2,62.1,110.6,62.1z"/>
		</g>
		<path class="st8" d="M99.9,191.4c4.9,0,8.9-2,8.9-4.5c0-2.5-4-4.5-8.9-4.5c-4.9,0-8.9,2-8.9,4.5C91,189.3,95,191.4,99.9,191.4z"/>
		<path class="st8" d="M123.3,191.4c4.9,0,8.9-2,8.9-4.5c0-2.5-4-4.5-8.9-4.5s-8.9,2-8.9,4.5C114.4,189.3,118.4,191.4,123.3,191.4z"
			/>
		<path class="st6" d="M111.6,56.6c14.8,0,26.9-9.3,26.9-20.7s-12.1-20.7-26.9-20.7s-26.9,9.3-26.9,20.7
			C84.7,47.3,96.8,56.6,111.6,56.6z"/>
		<g>
			<path class="st7" d="M103.4,36.5c0.8,0,1.5-1.2,1.5-2.6c0-1.4-0.7-2.6-1.5-2.6c-0.8,0-1.5,1.2-1.5,2.6
				C102,35.3,102.6,36.5,103.4,36.5z"/>
			<path class="st7" d="M119.8,36.5c0.8,0,1.5-1.2,1.5-2.6c0-1.4-0.7-2.6-1.5-2.6c-0.8,0-1.5,1.2-1.5,2.6
				C118.3,35.3,119,36.5,119.8,36.5z"/>
		</g>
		<path class="st14" d="M128.8,21c-11.4-3.2-39.1-9-39.4,16.8c0,1-3.6-6.3-4.3-5.5c2.3-12.3,17.5-19.2,30.4-17.4
			C120.4,15.6,124.7,16.8,128.8,21z"/>
		<path class="st5" d="M120.5,43.6c-3.9,0.7-13.3,0.7-17.7,0C107.3,49,116.9,49.2,120.5,43.6z"/>
		<path class="st14" d="M137.3,30.5C121.4,12.7,93.5,34.3,92,6c6.9,6.9,9.3,8.8,19.1,8.5C118.1,14.3,133.4,15.3,137.3,30.5z"/>
		<path class="st14" d="M137.3,33.7c-0.3-1-3.3,6.6-3.5,2.6C133.1,10.4,93.2,28.5,99.7,0c4.8,8.5,5.8,11.9,15.4,13.8
			C124.9,15.8,136.9,18.9,137.3,33.7z"/>
		<path class="st6" d="M82.8,34.1c-0.7-3.1-0.3-5.1,1.7-5.5c2-0.5,3.1,1.5,3.8,4.6s0.2,4.2-1.8,4.7S83.5,37.2,82.8,34.1z"/>
		<path class="st6" d="M136.2,33.9c0.7-3.1,0.5-4.2,2.5-3.7c2,0.5,2.7,2.6,2,5.7s-0.9,4.8-2.9,4.4S135.5,37,136.2,33.9z"/>
		<path class="st15" d="M76.2,101.1c-8.2-10.4-14.4-15.8-14-27.7c1.9-6,5.2-7.7,10.1-5.8c3.8,2.5,6.2,1.8,7.8,7.6l6.1,21.6
			L76.2,101.1z"/>
		<path class="st11" d="M63.4,82.7c1.3-0.5,7.7-12.9,14.2-13.1c1.1,1.7,2,3.6,2.5,5.5l6.1,21.4l0.1,0.2l-11.1,4.5
			C70.7,95.8,66.5,90.2,63.4,82.7z"/>
		
			<ellipse transform="matrix(0.2129 -0.9771 0.9771 0.2129 20.0313 253.0185)" class="st10" cx="167.1" cy="114.1" rx="4.2" ry="8.4"/>
		
			<ellipse transform="matrix(0.5574 -0.8302 0.8302 0.5574 -30.399 187.183)" class="st10" cx="160.4" cy="122.1" rx="4.2" ry="8.4"/>
		<g>
			<path class="st11" d="M82.1,92.1c9.9-10,18-12.2,24.6-11.6c6.5,0.6,11.1,1.8,20.2-2c8-3.4,13.3-1.8,19.3,7
				c3.8,5.6,8.8,2.4,15.4,5.4c4.9,2.2,7.9,7.9,6.9,17.2c-1,9.3-11.8,20.5-30.7,11.4c-7.7-3.7-1.2,11.1-2.3,18.7
				c-1.8,12.4-16.8,21.5-20.3,24.8c-6,5.8-16.7,3.7-16.8-2.7c-0.2-9.3-0.1-12.2-5.8-14.7c-8-3.6-12.1-11-9.2-19.6
				c2.7-8-1.8-11.7-5.2-16C74.9,105.7,72.2,102.1,82.1,92.1z"/>
			<path class="st11" d="M80.9,91.3c7.8-7.8,15.4-9.2,22-8.2c6.5,1,12.3,4.2,18.5-0.2c8.1-5.7,15.2-3.6,22.1,4.6
				c4.4,5.2,6.5,4.8,13.6,4.5c4.4-0.2,14.2,14.4,9.5,20.7c-4.7,6.4-8.3,11-29,6.3c-14.9-3.4,4.4,20.7-9.1,32.9
				c-13.5,12.1-22.9,3.8-23.5-1.4c-0.9-7.6-1.1-9.8-6.9-12.5c-8.2-3.8-12.7-10.5-10.8-17.6c1.8-6.7-3.1-10.5-7-14.5
				C76.5,102.2,73.2,99.1,80.9,91.3z"/>
			<path class="st11" d="M79.9,91.3c9.2-9.2,13.6-7.2,20.1-6c6.4,1.2,12.2,4.4,17.7,1.2c7.2-4.3,14.3-2,21.8,5.5
				c4.7,4.7,6.8,4.6,13.7,4.6c4.6,0,15.3,13,11.4,18.5c-4,5.4-5.1,9-24.9,4c-12-3,2.3,20.2-7.9,28.7c-10.2,8.5-22,0.3-22.8-4
				c-1.2-6.3-1.6-8.3-7.4-11c-8.2-3.8-13-9.9-11.9-15.9C91.8,105.7,70.8,100.5,79.9,91.3z"/>
			<path class="st11" d="M77.9,91.7c3.8-3.7,10.7-4.3,16.9-2.6c6.2,1.7,12,5.1,16.1,3.7c5.4-1.9,12.4,0.8,20.8,7.2
				c5.2,3.9,7.1,4.1,13.4,5c4.3,0.6,23.6,12,12.8,16.9c-10.8,4.9-15.5-10.4-27-6.8c-7,2.2,8,17.9,4.3,25.8
				c-3.7,7.8-16.9-5.4-18.4-8.4c-2.1-4.3-2.9-5.8-8.7-8.6c-8.3-4.1-13.8-9.2-14.2-13.4c-0.4-4-5.7-7.8-10.5-10.8
				C78.7,96.8,74.1,95.4,77.9,91.7z"/>
			<path class="st11" d="M76.6,91.9c2.1-2,8.8-2.4,14.9-0.4c6,2,11.9,5.4,15.1,5c4.1-0.4,10.9,2.8,19.8,8.6c5.4,3.5,7.2,4,12.8,5.4
				c3.9,1,19.3,11.8,14,11.8c-8.9-0.1-15.3-7.8-18.3-5.7c-3.6,2.6,2.8,19.7,0.3,19.3c-4.6-0.8-10.4-7.9-12.4-10.2
				c-2.9-3.3-4.2-4.4-10-7.4c-8.4-4.3-14.5-8.9-15.9-11.9c-1.4-3-6.9-6.6-12.1-9.2C79.6,94.7,74.5,94,76.6,91.9z"/>
		</g>
		<ellipse transform="matrix(0.8684 -0.4959 0.4959 0.8684 -39.5991 49.6576)" class="st6" cx="73.7" cy="99.4" rx="2.1" ry="3.8"/>
		<path class="st6" d="M74.9,68.2c16.8,2.7,19.2,7,40.5-5.9l2.4,2.9c-12.1,13.5-31.4,13.1-42.4,11.5C64.9,75.1,65.6,66.7,74.9,68.2z
			"/>
		<path class="st6" d="M115.6,59.3c0.7-1.3,1.6-1.4,2.3-0.6c1.7-1.7,6.2,0.4,5.2,3.7c-0.7,2.1-4.6,5.1-6.6,3.9
			C114.5,65.3,114.1,62.1,115.6,59.3z"/>
		<ellipse transform="matrix(0.992 -0.1259 0.1259 0.992 -13.8985 18.1762)" class="st6" cx="136.8" cy="119" rx="3.8" ry="2.1"/>
	</g>
</g>
</svg>
